%TF.GenerationSoftware,KiCad,Pcbnew,7.0.10*%
%TF.CreationDate,2024-06-28T17:48:14-04:00*%
%TF.ProjectId,LaserTank,4c617365-7254-4616-9e6b-2e6b69636164,rev?*%
%TF.SameCoordinates,Original*%
%TF.FileFunction,Legend,Top*%
%TF.FilePolarity,Positive*%
%FSLAX46Y46*%
G04 Gerber Fmt 4.6, Leading zero omitted, Abs format (unit mm)*
G04 Created by KiCad (PCBNEW 7.0.10) date 2024-06-28 17:48:14*
%MOMM*%
%LPD*%
G01*
G04 APERTURE LIST*
%ADD10C,0.150000*%
%ADD11C,0.120000*%
G04 APERTURE END LIST*
D10*
X117540112Y-77276009D02*
X117682969Y-77323628D01*
X117682969Y-77323628D02*
X117730588Y-77371247D01*
X117730588Y-77371247D02*
X117778207Y-77466485D01*
X117778207Y-77466485D02*
X117778207Y-77609342D01*
X117778207Y-77609342D02*
X117730588Y-77704580D01*
X117730588Y-77704580D02*
X117682969Y-77752200D01*
X117682969Y-77752200D02*
X117587731Y-77799819D01*
X117587731Y-77799819D02*
X117206779Y-77799819D01*
X117206779Y-77799819D02*
X117206779Y-76799819D01*
X117206779Y-76799819D02*
X117540112Y-76799819D01*
X117540112Y-76799819D02*
X117635350Y-76847438D01*
X117635350Y-76847438D02*
X117682969Y-76895057D01*
X117682969Y-76895057D02*
X117730588Y-76990295D01*
X117730588Y-76990295D02*
X117730588Y-77085533D01*
X117730588Y-77085533D02*
X117682969Y-77180771D01*
X117682969Y-77180771D02*
X117635350Y-77228390D01*
X117635350Y-77228390D02*
X117540112Y-77276009D01*
X117540112Y-77276009D02*
X117206779Y-77276009D01*
X118635350Y-77799819D02*
X118635350Y-77276009D01*
X118635350Y-77276009D02*
X118587731Y-77180771D01*
X118587731Y-77180771D02*
X118492493Y-77133152D01*
X118492493Y-77133152D02*
X118302017Y-77133152D01*
X118302017Y-77133152D02*
X118206779Y-77180771D01*
X118635350Y-77752200D02*
X118540112Y-77799819D01*
X118540112Y-77799819D02*
X118302017Y-77799819D01*
X118302017Y-77799819D02*
X118206779Y-77752200D01*
X118206779Y-77752200D02*
X118159160Y-77656961D01*
X118159160Y-77656961D02*
X118159160Y-77561723D01*
X118159160Y-77561723D02*
X118206779Y-77466485D01*
X118206779Y-77466485D02*
X118302017Y-77418866D01*
X118302017Y-77418866D02*
X118540112Y-77418866D01*
X118540112Y-77418866D02*
X118635350Y-77371247D01*
X118968684Y-77133152D02*
X119349636Y-77133152D01*
X119111541Y-76799819D02*
X119111541Y-77656961D01*
X119111541Y-77656961D02*
X119159160Y-77752200D01*
X119159160Y-77752200D02*
X119254398Y-77799819D01*
X119254398Y-77799819D02*
X119349636Y-77799819D01*
X119540113Y-77133152D02*
X119921065Y-77133152D01*
X119682970Y-76799819D02*
X119682970Y-77656961D01*
X119682970Y-77656961D02*
X119730589Y-77752200D01*
X119730589Y-77752200D02*
X119825827Y-77799819D01*
X119825827Y-77799819D02*
X119921065Y-77799819D01*
X120397256Y-77799819D02*
X120302018Y-77752200D01*
X120302018Y-77752200D02*
X120254399Y-77656961D01*
X120254399Y-77656961D02*
X120254399Y-76799819D01*
X121159161Y-77752200D02*
X121063923Y-77799819D01*
X121063923Y-77799819D02*
X120873447Y-77799819D01*
X120873447Y-77799819D02*
X120778209Y-77752200D01*
X120778209Y-77752200D02*
X120730590Y-77656961D01*
X120730590Y-77656961D02*
X120730590Y-77276009D01*
X120730590Y-77276009D02*
X120778209Y-77180771D01*
X120778209Y-77180771D02*
X120873447Y-77133152D01*
X120873447Y-77133152D02*
X121063923Y-77133152D01*
X121063923Y-77133152D02*
X121159161Y-77180771D01*
X121159161Y-77180771D02*
X121206780Y-77276009D01*
X121206780Y-77276009D02*
X121206780Y-77371247D01*
X121206780Y-77371247D02*
X120730590Y-77466485D01*
X122254400Y-76799819D02*
X122825828Y-76799819D01*
X122540114Y-77799819D02*
X122540114Y-76799819D01*
X123587733Y-77799819D02*
X123587733Y-77276009D01*
X123587733Y-77276009D02*
X123540114Y-77180771D01*
X123540114Y-77180771D02*
X123444876Y-77133152D01*
X123444876Y-77133152D02*
X123254400Y-77133152D01*
X123254400Y-77133152D02*
X123159162Y-77180771D01*
X123587733Y-77752200D02*
X123492495Y-77799819D01*
X123492495Y-77799819D02*
X123254400Y-77799819D01*
X123254400Y-77799819D02*
X123159162Y-77752200D01*
X123159162Y-77752200D02*
X123111543Y-77656961D01*
X123111543Y-77656961D02*
X123111543Y-77561723D01*
X123111543Y-77561723D02*
X123159162Y-77466485D01*
X123159162Y-77466485D02*
X123254400Y-77418866D01*
X123254400Y-77418866D02*
X123492495Y-77418866D01*
X123492495Y-77418866D02*
X123587733Y-77371247D01*
X124063924Y-77133152D02*
X124063924Y-77799819D01*
X124063924Y-77228390D02*
X124111543Y-77180771D01*
X124111543Y-77180771D02*
X124206781Y-77133152D01*
X124206781Y-77133152D02*
X124349638Y-77133152D01*
X124349638Y-77133152D02*
X124444876Y-77180771D01*
X124444876Y-77180771D02*
X124492495Y-77276009D01*
X124492495Y-77276009D02*
X124492495Y-77799819D01*
X124968686Y-77799819D02*
X124968686Y-76799819D01*
X125063924Y-77418866D02*
X125349638Y-77799819D01*
X125349638Y-77133152D02*
X124968686Y-77514104D01*
X125730591Y-77752200D02*
X125825829Y-77799819D01*
X125825829Y-77799819D02*
X126016305Y-77799819D01*
X126016305Y-77799819D02*
X126111543Y-77752200D01*
X126111543Y-77752200D02*
X126159162Y-77656961D01*
X126159162Y-77656961D02*
X126159162Y-77609342D01*
X126159162Y-77609342D02*
X126111543Y-77514104D01*
X126111543Y-77514104D02*
X126016305Y-77466485D01*
X126016305Y-77466485D02*
X125873448Y-77466485D01*
X125873448Y-77466485D02*
X125778210Y-77418866D01*
X125778210Y-77418866D02*
X125730591Y-77323628D01*
X125730591Y-77323628D02*
X125730591Y-77276009D01*
X125730591Y-77276009D02*
X125778210Y-77180771D01*
X125778210Y-77180771D02*
X125873448Y-77133152D01*
X125873448Y-77133152D02*
X126016305Y-77133152D01*
X126016305Y-77133152D02*
X126111543Y-77180771D01*
X127349639Y-77418866D02*
X128111544Y-77418866D01*
X129254401Y-77133152D02*
X129492496Y-77799819D01*
X129492496Y-77799819D02*
X129730591Y-77133152D01*
X130016306Y-76799819D02*
X130635353Y-76799819D01*
X130635353Y-76799819D02*
X130302020Y-77180771D01*
X130302020Y-77180771D02*
X130444877Y-77180771D01*
X130444877Y-77180771D02*
X130540115Y-77228390D01*
X130540115Y-77228390D02*
X130587734Y-77276009D01*
X130587734Y-77276009D02*
X130635353Y-77371247D01*
X130635353Y-77371247D02*
X130635353Y-77609342D01*
X130635353Y-77609342D02*
X130587734Y-77704580D01*
X130587734Y-77704580D02*
X130540115Y-77752200D01*
X130540115Y-77752200D02*
X130444877Y-77799819D01*
X130444877Y-77799819D02*
X130159163Y-77799819D01*
X130159163Y-77799819D02*
X130063925Y-77752200D01*
X130063925Y-77752200D02*
X130016306Y-77704580D01*
X131063925Y-77704580D02*
X131111544Y-77752200D01*
X131111544Y-77752200D02*
X131063925Y-77799819D01*
X131063925Y-77799819D02*
X131016306Y-77752200D01*
X131016306Y-77752200D02*
X131063925Y-77704580D01*
X131063925Y-77704580D02*
X131063925Y-77799819D01*
X131730591Y-76799819D02*
X131825829Y-76799819D01*
X131825829Y-76799819D02*
X131921067Y-76847438D01*
X131921067Y-76847438D02*
X131968686Y-76895057D01*
X131968686Y-76895057D02*
X132016305Y-76990295D01*
X132016305Y-76990295D02*
X132063924Y-77180771D01*
X132063924Y-77180771D02*
X132063924Y-77418866D01*
X132063924Y-77418866D02*
X132016305Y-77609342D01*
X132016305Y-77609342D02*
X131968686Y-77704580D01*
X131968686Y-77704580D02*
X131921067Y-77752200D01*
X131921067Y-77752200D02*
X131825829Y-77799819D01*
X131825829Y-77799819D02*
X131730591Y-77799819D01*
X131730591Y-77799819D02*
X131635353Y-77752200D01*
X131635353Y-77752200D02*
X131587734Y-77704580D01*
X131587734Y-77704580D02*
X131540115Y-77609342D01*
X131540115Y-77609342D02*
X131492496Y-77418866D01*
X131492496Y-77418866D02*
X131492496Y-77180771D01*
X131492496Y-77180771D02*
X131540115Y-76990295D01*
X131540115Y-76990295D02*
X131587734Y-76895057D01*
X131587734Y-76895057D02*
X131635353Y-76847438D01*
X131635353Y-76847438D02*
X131730591Y-76799819D01*
X117778207Y-79409819D02*
X117444874Y-78933628D01*
X117206779Y-79409819D02*
X117206779Y-78409819D01*
X117206779Y-78409819D02*
X117587731Y-78409819D01*
X117587731Y-78409819D02*
X117682969Y-78457438D01*
X117682969Y-78457438D02*
X117730588Y-78505057D01*
X117730588Y-78505057D02*
X117778207Y-78600295D01*
X117778207Y-78600295D02*
X117778207Y-78743152D01*
X117778207Y-78743152D02*
X117730588Y-78838390D01*
X117730588Y-78838390D02*
X117682969Y-78886009D01*
X117682969Y-78886009D02*
X117587731Y-78933628D01*
X117587731Y-78933628D02*
X117206779Y-78933628D01*
X118206779Y-79409819D02*
X118206779Y-78743152D01*
X118206779Y-78409819D02*
X118159160Y-78457438D01*
X118159160Y-78457438D02*
X118206779Y-78505057D01*
X118206779Y-78505057D02*
X118254398Y-78457438D01*
X118254398Y-78457438D02*
X118206779Y-78409819D01*
X118206779Y-78409819D02*
X118206779Y-78505057D01*
X119111540Y-79362200D02*
X119016302Y-79409819D01*
X119016302Y-79409819D02*
X118825826Y-79409819D01*
X118825826Y-79409819D02*
X118730588Y-79362200D01*
X118730588Y-79362200D02*
X118682969Y-79314580D01*
X118682969Y-79314580D02*
X118635350Y-79219342D01*
X118635350Y-79219342D02*
X118635350Y-78933628D01*
X118635350Y-78933628D02*
X118682969Y-78838390D01*
X118682969Y-78838390D02*
X118730588Y-78790771D01*
X118730588Y-78790771D02*
X118825826Y-78743152D01*
X118825826Y-78743152D02*
X119016302Y-78743152D01*
X119016302Y-78743152D02*
X119111540Y-78790771D01*
X119540112Y-79409819D02*
X119540112Y-78409819D01*
X119635350Y-79028866D02*
X119921064Y-79409819D01*
X119921064Y-78743152D02*
X119540112Y-79124104D01*
X121111541Y-79409819D02*
X121111541Y-78409819D01*
X121111541Y-78409819D02*
X121444874Y-79124104D01*
X121444874Y-79124104D02*
X121778207Y-78409819D01*
X121778207Y-78409819D02*
X121778207Y-79409819D01*
X122682969Y-79362200D02*
X122587731Y-79409819D01*
X122587731Y-79409819D02*
X122397255Y-79409819D01*
X122397255Y-79409819D02*
X122302017Y-79362200D01*
X122302017Y-79362200D02*
X122254398Y-79314580D01*
X122254398Y-79314580D02*
X122206779Y-79219342D01*
X122206779Y-79219342D02*
X122206779Y-78933628D01*
X122206779Y-78933628D02*
X122254398Y-78838390D01*
X122254398Y-78838390D02*
X122302017Y-78790771D01*
X122302017Y-78790771D02*
X122397255Y-78743152D01*
X122397255Y-78743152D02*
X122587731Y-78743152D01*
X122587731Y-78743152D02*
X122682969Y-78790771D01*
X123111541Y-79409819D02*
X123111541Y-78409819D01*
X123682969Y-79409819D02*
X123254398Y-78838390D01*
X123682969Y-78409819D02*
X123111541Y-78981247D01*
X124492493Y-79362200D02*
X124397255Y-79409819D01*
X124397255Y-79409819D02*
X124206779Y-79409819D01*
X124206779Y-79409819D02*
X124111541Y-79362200D01*
X124111541Y-79362200D02*
X124063922Y-79266961D01*
X124063922Y-79266961D02*
X124063922Y-78886009D01*
X124063922Y-78886009D02*
X124111541Y-78790771D01*
X124111541Y-78790771D02*
X124206779Y-78743152D01*
X124206779Y-78743152D02*
X124397255Y-78743152D01*
X124397255Y-78743152D02*
X124492493Y-78790771D01*
X124492493Y-78790771D02*
X124540112Y-78886009D01*
X124540112Y-78886009D02*
X124540112Y-78981247D01*
X124540112Y-78981247D02*
X124063922Y-79076485D01*
X124968684Y-78743152D02*
X124968684Y-79409819D01*
X124968684Y-78838390D02*
X125016303Y-78790771D01*
X125016303Y-78790771D02*
X125111541Y-78743152D01*
X125111541Y-78743152D02*
X125254398Y-78743152D01*
X125254398Y-78743152D02*
X125349636Y-78790771D01*
X125349636Y-78790771D02*
X125397255Y-78886009D01*
X125397255Y-78886009D02*
X125397255Y-79409819D01*
X125778208Y-78743152D02*
X126302017Y-78743152D01*
X126302017Y-78743152D02*
X125778208Y-79409819D01*
X125778208Y-79409819D02*
X126302017Y-79409819D01*
X126682970Y-79409819D02*
X126682970Y-78743152D01*
X126682970Y-78409819D02*
X126635351Y-78457438D01*
X126635351Y-78457438D02*
X126682970Y-78505057D01*
X126682970Y-78505057D02*
X126730589Y-78457438D01*
X126730589Y-78457438D02*
X126682970Y-78409819D01*
X126682970Y-78409819D02*
X126682970Y-78505057D01*
X127540112Y-79362200D02*
X127444874Y-79409819D01*
X127444874Y-79409819D02*
X127254398Y-79409819D01*
X127254398Y-79409819D02*
X127159160Y-79362200D01*
X127159160Y-79362200D02*
X127111541Y-79266961D01*
X127111541Y-79266961D02*
X127111541Y-78886009D01*
X127111541Y-78886009D02*
X127159160Y-78790771D01*
X127159160Y-78790771D02*
X127254398Y-78743152D01*
X127254398Y-78743152D02*
X127444874Y-78743152D01*
X127444874Y-78743152D02*
X127540112Y-78790771D01*
X127540112Y-78790771D02*
X127587731Y-78886009D01*
X127587731Y-78886009D02*
X127587731Y-78981247D01*
X127587731Y-78981247D02*
X127111541Y-79076485D01*
X128778208Y-79409819D02*
X128778208Y-78409819D01*
X128778208Y-78409819D02*
X129016303Y-78409819D01*
X129016303Y-78409819D02*
X129159160Y-78457438D01*
X129159160Y-78457438D02*
X129254398Y-78552676D01*
X129254398Y-78552676D02*
X129302017Y-78647914D01*
X129302017Y-78647914D02*
X129349636Y-78838390D01*
X129349636Y-78838390D02*
X129349636Y-78981247D01*
X129349636Y-78981247D02*
X129302017Y-79171723D01*
X129302017Y-79171723D02*
X129254398Y-79266961D01*
X129254398Y-79266961D02*
X129159160Y-79362200D01*
X129159160Y-79362200D02*
X129016303Y-79409819D01*
X129016303Y-79409819D02*
X128778208Y-79409819D01*
X130159160Y-79362200D02*
X130063922Y-79409819D01*
X130063922Y-79409819D02*
X129873446Y-79409819D01*
X129873446Y-79409819D02*
X129778208Y-79362200D01*
X129778208Y-79362200D02*
X129730589Y-79266961D01*
X129730589Y-79266961D02*
X129730589Y-78886009D01*
X129730589Y-78886009D02*
X129778208Y-78790771D01*
X129778208Y-78790771D02*
X129873446Y-78743152D01*
X129873446Y-78743152D02*
X130063922Y-78743152D01*
X130063922Y-78743152D02*
X130159160Y-78790771D01*
X130159160Y-78790771D02*
X130206779Y-78886009D01*
X130206779Y-78886009D02*
X130206779Y-78981247D01*
X130206779Y-78981247D02*
X129730589Y-79076485D01*
X130587732Y-79362200D02*
X130682970Y-79409819D01*
X130682970Y-79409819D02*
X130873446Y-79409819D01*
X130873446Y-79409819D02*
X130968684Y-79362200D01*
X130968684Y-79362200D02*
X131016303Y-79266961D01*
X131016303Y-79266961D02*
X131016303Y-79219342D01*
X131016303Y-79219342D02*
X130968684Y-79124104D01*
X130968684Y-79124104D02*
X130873446Y-79076485D01*
X130873446Y-79076485D02*
X130730589Y-79076485D01*
X130730589Y-79076485D02*
X130635351Y-79028866D01*
X130635351Y-79028866D02*
X130587732Y-78933628D01*
X130587732Y-78933628D02*
X130587732Y-78886009D01*
X130587732Y-78886009D02*
X130635351Y-78790771D01*
X130635351Y-78790771D02*
X130730589Y-78743152D01*
X130730589Y-78743152D02*
X130873446Y-78743152D01*
X130873446Y-78743152D02*
X130968684Y-78790771D01*
X131444875Y-79409819D02*
X131444875Y-78743152D01*
X131444875Y-78409819D02*
X131397256Y-78457438D01*
X131397256Y-78457438D02*
X131444875Y-78505057D01*
X131444875Y-78505057D02*
X131492494Y-78457438D01*
X131492494Y-78457438D02*
X131444875Y-78409819D01*
X131444875Y-78409819D02*
X131444875Y-78505057D01*
X132349636Y-78743152D02*
X132349636Y-79552676D01*
X132349636Y-79552676D02*
X132302017Y-79647914D01*
X132302017Y-79647914D02*
X132254398Y-79695533D01*
X132254398Y-79695533D02*
X132159160Y-79743152D01*
X132159160Y-79743152D02*
X132016303Y-79743152D01*
X132016303Y-79743152D02*
X131921065Y-79695533D01*
X132349636Y-79362200D02*
X132254398Y-79409819D01*
X132254398Y-79409819D02*
X132063922Y-79409819D01*
X132063922Y-79409819D02*
X131968684Y-79362200D01*
X131968684Y-79362200D02*
X131921065Y-79314580D01*
X131921065Y-79314580D02*
X131873446Y-79219342D01*
X131873446Y-79219342D02*
X131873446Y-78933628D01*
X131873446Y-78933628D02*
X131921065Y-78838390D01*
X131921065Y-78838390D02*
X131968684Y-78790771D01*
X131968684Y-78790771D02*
X132063922Y-78743152D01*
X132063922Y-78743152D02*
X132254398Y-78743152D01*
X132254398Y-78743152D02*
X132349636Y-78790771D01*
X132825827Y-78743152D02*
X132825827Y-79409819D01*
X132825827Y-78838390D02*
X132873446Y-78790771D01*
X132873446Y-78790771D02*
X132968684Y-78743152D01*
X132968684Y-78743152D02*
X133111541Y-78743152D01*
X133111541Y-78743152D02*
X133206779Y-78790771D01*
X133206779Y-78790771D02*
X133254398Y-78886009D01*
X133254398Y-78886009D02*
X133254398Y-79409819D01*
X104860588Y-88899819D02*
X104289160Y-88899819D01*
X104574874Y-88899819D02*
X104574874Y-87899819D01*
X104574874Y-87899819D02*
X104479636Y-88042676D01*
X104479636Y-88042676D02*
X104384398Y-88137914D01*
X104384398Y-88137914D02*
X104289160Y-88185533D01*
X105717731Y-87899819D02*
X105527255Y-87899819D01*
X105527255Y-87899819D02*
X105432017Y-87947438D01*
X105432017Y-87947438D02*
X105384398Y-87995057D01*
X105384398Y-87995057D02*
X105289160Y-88137914D01*
X105289160Y-88137914D02*
X105241541Y-88328390D01*
X105241541Y-88328390D02*
X105241541Y-88709342D01*
X105241541Y-88709342D02*
X105289160Y-88804580D01*
X105289160Y-88804580D02*
X105336779Y-88852200D01*
X105336779Y-88852200D02*
X105432017Y-88899819D01*
X105432017Y-88899819D02*
X105622493Y-88899819D01*
X105622493Y-88899819D02*
X105717731Y-88852200D01*
X105717731Y-88852200D02*
X105765350Y-88804580D01*
X105765350Y-88804580D02*
X105812969Y-88709342D01*
X105812969Y-88709342D02*
X105812969Y-88471247D01*
X105812969Y-88471247D02*
X105765350Y-88376009D01*
X105765350Y-88376009D02*
X105717731Y-88328390D01*
X105717731Y-88328390D02*
X105622493Y-88280771D01*
X105622493Y-88280771D02*
X105432017Y-88280771D01*
X105432017Y-88280771D02*
X105336779Y-88328390D01*
X105336779Y-88328390D02*
X105289160Y-88376009D01*
X105289160Y-88376009D02*
X105241541Y-88471247D01*
X147626009Y-115859887D02*
X147673628Y-115717030D01*
X147673628Y-115717030D02*
X147721247Y-115669411D01*
X147721247Y-115669411D02*
X147816485Y-115621792D01*
X147816485Y-115621792D02*
X147959342Y-115621792D01*
X147959342Y-115621792D02*
X148054580Y-115669411D01*
X148054580Y-115669411D02*
X148102200Y-115717030D01*
X148102200Y-115717030D02*
X148149819Y-115812268D01*
X148149819Y-115812268D02*
X148149819Y-116193220D01*
X148149819Y-116193220D02*
X147149819Y-116193220D01*
X147149819Y-116193220D02*
X147149819Y-115859887D01*
X147149819Y-115859887D02*
X147197438Y-115764649D01*
X147197438Y-115764649D02*
X147245057Y-115717030D01*
X147245057Y-115717030D02*
X147340295Y-115669411D01*
X147340295Y-115669411D02*
X147435533Y-115669411D01*
X147435533Y-115669411D02*
X147530771Y-115717030D01*
X147530771Y-115717030D02*
X147578390Y-115764649D01*
X147578390Y-115764649D02*
X147626009Y-115859887D01*
X147626009Y-115859887D02*
X147626009Y-116193220D01*
X148149819Y-114717030D02*
X148149819Y-115193220D01*
X148149819Y-115193220D02*
X147149819Y-115193220D01*
X148149819Y-114383696D02*
X147149819Y-114383696D01*
X148149819Y-113812268D02*
X147578390Y-114240839D01*
X147149819Y-113812268D02*
X147721247Y-114383696D01*
X147989819Y-121241792D02*
X147513628Y-121575125D01*
X147989819Y-121813220D02*
X146989819Y-121813220D01*
X146989819Y-121813220D02*
X146989819Y-121432268D01*
X146989819Y-121432268D02*
X147037438Y-121337030D01*
X147037438Y-121337030D02*
X147085057Y-121289411D01*
X147085057Y-121289411D02*
X147180295Y-121241792D01*
X147180295Y-121241792D02*
X147323152Y-121241792D01*
X147323152Y-121241792D02*
X147418390Y-121289411D01*
X147418390Y-121289411D02*
X147466009Y-121337030D01*
X147466009Y-121337030D02*
X147513628Y-121432268D01*
X147513628Y-121432268D02*
X147513628Y-121813220D01*
X147466009Y-120813220D02*
X147466009Y-120479887D01*
X147989819Y-120337030D02*
X147989819Y-120813220D01*
X147989819Y-120813220D02*
X146989819Y-120813220D01*
X146989819Y-120813220D02*
X146989819Y-120337030D01*
X147989819Y-119908458D02*
X146989819Y-119908458D01*
X146989819Y-119908458D02*
X146989819Y-119670363D01*
X146989819Y-119670363D02*
X147037438Y-119527506D01*
X147037438Y-119527506D02*
X147132676Y-119432268D01*
X147132676Y-119432268D02*
X147227914Y-119384649D01*
X147227914Y-119384649D02*
X147418390Y-119337030D01*
X147418390Y-119337030D02*
X147561247Y-119337030D01*
X147561247Y-119337030D02*
X147751723Y-119384649D01*
X147751723Y-119384649D02*
X147846961Y-119432268D01*
X147846961Y-119432268D02*
X147942200Y-119527506D01*
X147942200Y-119527506D02*
X147989819Y-119670363D01*
X147989819Y-119670363D02*
X147989819Y-119908458D01*
X125470588Y-124679819D02*
X124899160Y-124679819D01*
X125184874Y-124679819D02*
X125184874Y-123679819D01*
X125184874Y-123679819D02*
X125089636Y-123822676D01*
X125089636Y-123822676D02*
X124994398Y-123917914D01*
X124994398Y-123917914D02*
X124899160Y-123965533D01*
X125270588Y-88659819D02*
X124699160Y-88659819D01*
X124984874Y-88659819D02*
X124984874Y-87659819D01*
X124984874Y-87659819D02*
X124889636Y-87802676D01*
X124889636Y-87802676D02*
X124794398Y-87897914D01*
X124794398Y-87897914D02*
X124699160Y-87945533D01*
X126175350Y-87659819D02*
X125699160Y-87659819D01*
X125699160Y-87659819D02*
X125651541Y-88136009D01*
X125651541Y-88136009D02*
X125699160Y-88088390D01*
X125699160Y-88088390D02*
X125794398Y-88040771D01*
X125794398Y-88040771D02*
X126032493Y-88040771D01*
X126032493Y-88040771D02*
X126127731Y-88088390D01*
X126127731Y-88088390D02*
X126175350Y-88136009D01*
X126175350Y-88136009D02*
X126222969Y-88231247D01*
X126222969Y-88231247D02*
X126222969Y-88469342D01*
X126222969Y-88469342D02*
X126175350Y-88564580D01*
X126175350Y-88564580D02*
X126127731Y-88612200D01*
X126127731Y-88612200D02*
X126032493Y-88659819D01*
X126032493Y-88659819D02*
X125794398Y-88659819D01*
X125794398Y-88659819D02*
X125699160Y-88612200D01*
X125699160Y-88612200D02*
X125651541Y-88564580D01*
X104051541Y-123689819D02*
X104670588Y-123689819D01*
X104670588Y-123689819D02*
X104337255Y-124070771D01*
X104337255Y-124070771D02*
X104480112Y-124070771D01*
X104480112Y-124070771D02*
X104575350Y-124118390D01*
X104575350Y-124118390D02*
X104622969Y-124166009D01*
X104622969Y-124166009D02*
X104670588Y-124261247D01*
X104670588Y-124261247D02*
X104670588Y-124499342D01*
X104670588Y-124499342D02*
X104622969Y-124594580D01*
X104622969Y-124594580D02*
X104575350Y-124642200D01*
X104575350Y-124642200D02*
X104480112Y-124689819D01*
X104480112Y-124689819D02*
X104194398Y-124689819D01*
X104194398Y-124689819D02*
X104099160Y-124642200D01*
X104099160Y-124642200D02*
X104051541Y-124594580D01*
X105289636Y-123689819D02*
X105384874Y-123689819D01*
X105384874Y-123689819D02*
X105480112Y-123737438D01*
X105480112Y-123737438D02*
X105527731Y-123785057D01*
X105527731Y-123785057D02*
X105575350Y-123880295D01*
X105575350Y-123880295D02*
X105622969Y-124070771D01*
X105622969Y-124070771D02*
X105622969Y-124308866D01*
X105622969Y-124308866D02*
X105575350Y-124499342D01*
X105575350Y-124499342D02*
X105527731Y-124594580D01*
X105527731Y-124594580D02*
X105480112Y-124642200D01*
X105480112Y-124642200D02*
X105384874Y-124689819D01*
X105384874Y-124689819D02*
X105289636Y-124689819D01*
X105289636Y-124689819D02*
X105194398Y-124642200D01*
X105194398Y-124642200D02*
X105146779Y-124594580D01*
X105146779Y-124594580D02*
X105099160Y-124499342D01*
X105099160Y-124499342D02*
X105051541Y-124308866D01*
X105051541Y-124308866D02*
X105051541Y-124070771D01*
X105051541Y-124070771D02*
X105099160Y-123880295D01*
X105099160Y-123880295D02*
X105146779Y-123785057D01*
X105146779Y-123785057D02*
X105194398Y-123737438D01*
X105194398Y-123737438D02*
X105289636Y-123689819D01*
X135780819Y-104147333D02*
X136495104Y-104147333D01*
X136495104Y-104147333D02*
X136637961Y-104194952D01*
X136637961Y-104194952D02*
X136733200Y-104290190D01*
X136733200Y-104290190D02*
X136780819Y-104433047D01*
X136780819Y-104433047D02*
X136780819Y-104528285D01*
X136780819Y-103147333D02*
X136780819Y-103718761D01*
X136780819Y-103433047D02*
X135780819Y-103433047D01*
X135780819Y-103433047D02*
X135923676Y-103528285D01*
X135923676Y-103528285D02*
X136018914Y-103623523D01*
X136018914Y-103623523D02*
X136066533Y-103718761D01*
X143051009Y-102657143D02*
X143051009Y-102990476D01*
X143574819Y-102990476D02*
X142574819Y-102990476D01*
X142574819Y-102990476D02*
X142574819Y-102514286D01*
X143574819Y-102133333D02*
X142908152Y-102133333D01*
X143098628Y-102133333D02*
X143003390Y-102085714D01*
X143003390Y-102085714D02*
X142955771Y-102038095D01*
X142955771Y-102038095D02*
X142908152Y-101942857D01*
X142908152Y-101942857D02*
X142908152Y-101847619D01*
X143574819Y-101371428D02*
X143527200Y-101466666D01*
X143527200Y-101466666D02*
X143479580Y-101514285D01*
X143479580Y-101514285D02*
X143384342Y-101561904D01*
X143384342Y-101561904D02*
X143098628Y-101561904D01*
X143098628Y-101561904D02*
X143003390Y-101514285D01*
X143003390Y-101514285D02*
X142955771Y-101466666D01*
X142955771Y-101466666D02*
X142908152Y-101371428D01*
X142908152Y-101371428D02*
X142908152Y-101228571D01*
X142908152Y-101228571D02*
X142955771Y-101133333D01*
X142955771Y-101133333D02*
X143003390Y-101085714D01*
X143003390Y-101085714D02*
X143098628Y-101038095D01*
X143098628Y-101038095D02*
X143384342Y-101038095D01*
X143384342Y-101038095D02*
X143479580Y-101085714D01*
X143479580Y-101085714D02*
X143527200Y-101133333D01*
X143527200Y-101133333D02*
X143574819Y-101228571D01*
X143574819Y-101228571D02*
X143574819Y-101371428D01*
X142908152Y-100609523D02*
X143574819Y-100609523D01*
X143003390Y-100609523D02*
X142955771Y-100561904D01*
X142955771Y-100561904D02*
X142908152Y-100466666D01*
X142908152Y-100466666D02*
X142908152Y-100323809D01*
X142908152Y-100323809D02*
X142955771Y-100228571D01*
X142955771Y-100228571D02*
X143051009Y-100180952D01*
X143051009Y-100180952D02*
X143574819Y-100180952D01*
X142908152Y-99847618D02*
X142908152Y-99466666D01*
X142574819Y-99704761D02*
X143431961Y-99704761D01*
X143431961Y-99704761D02*
X143527200Y-99657142D01*
X143527200Y-99657142D02*
X143574819Y-99561904D01*
X143574819Y-99561904D02*
X143574819Y-99466666D01*
X137654819Y-121449523D02*
X138369104Y-121449523D01*
X138369104Y-121449523D02*
X138511961Y-121497142D01*
X138511961Y-121497142D02*
X138607200Y-121592380D01*
X138607200Y-121592380D02*
X138654819Y-121735237D01*
X138654819Y-121735237D02*
X138654819Y-121830475D01*
X138654819Y-120449523D02*
X138654819Y-121020951D01*
X138654819Y-120735237D02*
X137654819Y-120735237D01*
X137654819Y-120735237D02*
X137797676Y-120830475D01*
X137797676Y-120830475D02*
X137892914Y-120925713D01*
X137892914Y-120925713D02*
X137940533Y-121020951D01*
X138654819Y-119497142D02*
X138654819Y-120068570D01*
X138654819Y-119782856D02*
X137654819Y-119782856D01*
X137654819Y-119782856D02*
X137797676Y-119878094D01*
X137797676Y-119878094D02*
X137892914Y-119973332D01*
X137892914Y-119973332D02*
X137940533Y-120068570D01*
X145794819Y-109449523D02*
X146509104Y-109449523D01*
X146509104Y-109449523D02*
X146651961Y-109497142D01*
X146651961Y-109497142D02*
X146747200Y-109592380D01*
X146747200Y-109592380D02*
X146794819Y-109735237D01*
X146794819Y-109735237D02*
X146794819Y-109830475D01*
X146794819Y-108449523D02*
X146794819Y-109020951D01*
X146794819Y-108735237D02*
X145794819Y-108735237D01*
X145794819Y-108735237D02*
X145937676Y-108830475D01*
X145937676Y-108830475D02*
X146032914Y-108925713D01*
X146032914Y-108925713D02*
X146080533Y-109020951D01*
X145794819Y-108116189D02*
X145794819Y-107449523D01*
X145794819Y-107449523D02*
X146794819Y-107878094D01*
X152684819Y-111425714D02*
X152684819Y-111901904D01*
X152684819Y-111901904D02*
X153161009Y-111949523D01*
X153161009Y-111949523D02*
X153113390Y-111901904D01*
X153113390Y-111901904D02*
X153065771Y-111806666D01*
X153065771Y-111806666D02*
X153065771Y-111568571D01*
X153065771Y-111568571D02*
X153113390Y-111473333D01*
X153113390Y-111473333D02*
X153161009Y-111425714D01*
X153161009Y-111425714D02*
X153256247Y-111378095D01*
X153256247Y-111378095D02*
X153494342Y-111378095D01*
X153494342Y-111378095D02*
X153589580Y-111425714D01*
X153589580Y-111425714D02*
X153637200Y-111473333D01*
X153637200Y-111473333D02*
X153684819Y-111568571D01*
X153684819Y-111568571D02*
X153684819Y-111806666D01*
X153684819Y-111806666D02*
X153637200Y-111901904D01*
X153637200Y-111901904D02*
X153589580Y-111949523D01*
X152684819Y-111092380D02*
X153684819Y-110759047D01*
X153684819Y-110759047D02*
X152684819Y-110425714D01*
X153684819Y-109330475D02*
X152684819Y-109330475D01*
X152684819Y-109330475D02*
X152684819Y-108949523D01*
X152684819Y-108949523D02*
X152732438Y-108854285D01*
X152732438Y-108854285D02*
X152780057Y-108806666D01*
X152780057Y-108806666D02*
X152875295Y-108759047D01*
X152875295Y-108759047D02*
X153018152Y-108759047D01*
X153018152Y-108759047D02*
X153113390Y-108806666D01*
X153113390Y-108806666D02*
X153161009Y-108854285D01*
X153161009Y-108854285D02*
X153208628Y-108949523D01*
X153208628Y-108949523D02*
X153208628Y-109330475D01*
X153684819Y-108187618D02*
X153637200Y-108282856D01*
X153637200Y-108282856D02*
X153589580Y-108330475D01*
X153589580Y-108330475D02*
X153494342Y-108378094D01*
X153494342Y-108378094D02*
X153208628Y-108378094D01*
X153208628Y-108378094D02*
X153113390Y-108330475D01*
X153113390Y-108330475D02*
X153065771Y-108282856D01*
X153065771Y-108282856D02*
X153018152Y-108187618D01*
X153018152Y-108187618D02*
X153018152Y-108044761D01*
X153018152Y-108044761D02*
X153065771Y-107949523D01*
X153065771Y-107949523D02*
X153113390Y-107901904D01*
X153113390Y-107901904D02*
X153208628Y-107854285D01*
X153208628Y-107854285D02*
X153494342Y-107854285D01*
X153494342Y-107854285D02*
X153589580Y-107901904D01*
X153589580Y-107901904D02*
X153637200Y-107949523D01*
X153637200Y-107949523D02*
X153684819Y-108044761D01*
X153684819Y-108044761D02*
X153684819Y-108187618D01*
X153018152Y-107520951D02*
X153684819Y-107330475D01*
X153684819Y-107330475D02*
X153208628Y-107139999D01*
X153208628Y-107139999D02*
X153684819Y-106949523D01*
X153684819Y-106949523D02*
X153018152Y-106759047D01*
X153637200Y-105997142D02*
X153684819Y-106092380D01*
X153684819Y-106092380D02*
X153684819Y-106282856D01*
X153684819Y-106282856D02*
X153637200Y-106378094D01*
X153637200Y-106378094D02*
X153541961Y-106425713D01*
X153541961Y-106425713D02*
X153161009Y-106425713D01*
X153161009Y-106425713D02*
X153065771Y-106378094D01*
X153065771Y-106378094D02*
X153018152Y-106282856D01*
X153018152Y-106282856D02*
X153018152Y-106092380D01*
X153018152Y-106092380D02*
X153065771Y-105997142D01*
X153065771Y-105997142D02*
X153161009Y-105949523D01*
X153161009Y-105949523D02*
X153256247Y-105949523D01*
X153256247Y-105949523D02*
X153351485Y-106425713D01*
X153684819Y-105520951D02*
X153018152Y-105520951D01*
X153208628Y-105520951D02*
X153113390Y-105473332D01*
X153113390Y-105473332D02*
X153065771Y-105425713D01*
X153065771Y-105425713D02*
X153018152Y-105330475D01*
X153018152Y-105330475D02*
X153018152Y-105235237D01*
X146100057Y-126905238D02*
X146052438Y-127000476D01*
X146052438Y-127000476D02*
X145957200Y-127095714D01*
X145957200Y-127095714D02*
X145814342Y-127238571D01*
X145814342Y-127238571D02*
X145766723Y-127333809D01*
X145766723Y-127333809D02*
X145766723Y-127429047D01*
X146004819Y-127381428D02*
X145957200Y-127476666D01*
X145957200Y-127476666D02*
X145861961Y-127571904D01*
X145861961Y-127571904D02*
X145671485Y-127619523D01*
X145671485Y-127619523D02*
X145338152Y-127619523D01*
X145338152Y-127619523D02*
X145147676Y-127571904D01*
X145147676Y-127571904D02*
X145052438Y-127476666D01*
X145052438Y-127476666D02*
X145004819Y-127381428D01*
X145004819Y-127381428D02*
X145004819Y-127190952D01*
X145004819Y-127190952D02*
X145052438Y-127095714D01*
X145052438Y-127095714D02*
X145147676Y-127000476D01*
X145147676Y-127000476D02*
X145338152Y-126952857D01*
X145338152Y-126952857D02*
X145671485Y-126952857D01*
X145671485Y-126952857D02*
X145861961Y-127000476D01*
X145861961Y-127000476D02*
X145957200Y-127095714D01*
X145957200Y-127095714D02*
X146004819Y-127190952D01*
X146004819Y-127190952D02*
X146004819Y-127381428D01*
X146004819Y-126000476D02*
X146004819Y-126571904D01*
X146004819Y-126286190D02*
X145004819Y-126286190D01*
X145004819Y-126286190D02*
X145147676Y-126381428D01*
X145147676Y-126381428D02*
X145242914Y-126476666D01*
X145242914Y-126476666D02*
X145290533Y-126571904D01*
X148983333Y-101674819D02*
X148650000Y-101198628D01*
X148411905Y-101674819D02*
X148411905Y-100674819D01*
X148411905Y-100674819D02*
X148792857Y-100674819D01*
X148792857Y-100674819D02*
X148888095Y-100722438D01*
X148888095Y-100722438D02*
X148935714Y-100770057D01*
X148935714Y-100770057D02*
X148983333Y-100865295D01*
X148983333Y-100865295D02*
X148983333Y-101008152D01*
X148983333Y-101008152D02*
X148935714Y-101103390D01*
X148935714Y-101103390D02*
X148888095Y-101151009D01*
X148888095Y-101151009D02*
X148792857Y-101198628D01*
X148792857Y-101198628D02*
X148411905Y-101198628D01*
X149888095Y-100674819D02*
X149411905Y-100674819D01*
X149411905Y-100674819D02*
X149364286Y-101151009D01*
X149364286Y-101151009D02*
X149411905Y-101103390D01*
X149411905Y-101103390D02*
X149507143Y-101055771D01*
X149507143Y-101055771D02*
X149745238Y-101055771D01*
X149745238Y-101055771D02*
X149840476Y-101103390D01*
X149840476Y-101103390D02*
X149888095Y-101151009D01*
X149888095Y-101151009D02*
X149935714Y-101246247D01*
X149935714Y-101246247D02*
X149935714Y-101484342D01*
X149935714Y-101484342D02*
X149888095Y-101579580D01*
X149888095Y-101579580D02*
X149840476Y-101627200D01*
X149840476Y-101627200D02*
X149745238Y-101674819D01*
X149745238Y-101674819D02*
X149507143Y-101674819D01*
X149507143Y-101674819D02*
X149411905Y-101627200D01*
X149411905Y-101627200D02*
X149364286Y-101579580D01*
X148459523Y-103552819D02*
X147888095Y-103552819D01*
X148173809Y-103552819D02*
X148173809Y-102552819D01*
X148173809Y-102552819D02*
X148078571Y-102695676D01*
X148078571Y-102695676D02*
X147983333Y-102790914D01*
X147983333Y-102790914D02*
X147888095Y-102838533D01*
X149078571Y-102552819D02*
X149173809Y-102552819D01*
X149173809Y-102552819D02*
X149269047Y-102600438D01*
X149269047Y-102600438D02*
X149316666Y-102648057D01*
X149316666Y-102648057D02*
X149364285Y-102743295D01*
X149364285Y-102743295D02*
X149411904Y-102933771D01*
X149411904Y-102933771D02*
X149411904Y-103171866D01*
X149411904Y-103171866D02*
X149364285Y-103362342D01*
X149364285Y-103362342D02*
X149316666Y-103457580D01*
X149316666Y-103457580D02*
X149269047Y-103505200D01*
X149269047Y-103505200D02*
X149173809Y-103552819D01*
X149173809Y-103552819D02*
X149078571Y-103552819D01*
X149078571Y-103552819D02*
X148983333Y-103505200D01*
X148983333Y-103505200D02*
X148935714Y-103457580D01*
X148935714Y-103457580D02*
X148888095Y-103362342D01*
X148888095Y-103362342D02*
X148840476Y-103171866D01*
X148840476Y-103171866D02*
X148840476Y-102933771D01*
X148840476Y-102933771D02*
X148888095Y-102743295D01*
X148888095Y-102743295D02*
X148935714Y-102648057D01*
X148935714Y-102648057D02*
X148983333Y-102600438D01*
X148983333Y-102600438D02*
X149078571Y-102552819D01*
X149840476Y-103552819D02*
X149840476Y-102552819D01*
X150411904Y-103552819D02*
X149983333Y-102981390D01*
X150411904Y-102552819D02*
X149840476Y-103124247D01*
X129443333Y-120354819D02*
X129110000Y-119878628D01*
X128871905Y-120354819D02*
X128871905Y-119354819D01*
X128871905Y-119354819D02*
X129252857Y-119354819D01*
X129252857Y-119354819D02*
X129348095Y-119402438D01*
X129348095Y-119402438D02*
X129395714Y-119450057D01*
X129395714Y-119450057D02*
X129443333Y-119545295D01*
X129443333Y-119545295D02*
X129443333Y-119688152D01*
X129443333Y-119688152D02*
X129395714Y-119783390D01*
X129395714Y-119783390D02*
X129348095Y-119831009D01*
X129348095Y-119831009D02*
X129252857Y-119878628D01*
X129252857Y-119878628D02*
X128871905Y-119878628D01*
X130395714Y-120354819D02*
X129824286Y-120354819D01*
X130110000Y-120354819D02*
X130110000Y-119354819D01*
X130110000Y-119354819D02*
X130014762Y-119497676D01*
X130014762Y-119497676D02*
X129919524Y-119592914D01*
X129919524Y-119592914D02*
X129824286Y-119640533D01*
X128919523Y-122274819D02*
X128348095Y-122274819D01*
X128633809Y-122274819D02*
X128633809Y-121274819D01*
X128633809Y-121274819D02*
X128538571Y-121417676D01*
X128538571Y-121417676D02*
X128443333Y-121512914D01*
X128443333Y-121512914D02*
X128348095Y-121560533D01*
X129538571Y-121274819D02*
X129633809Y-121274819D01*
X129633809Y-121274819D02*
X129729047Y-121322438D01*
X129729047Y-121322438D02*
X129776666Y-121370057D01*
X129776666Y-121370057D02*
X129824285Y-121465295D01*
X129824285Y-121465295D02*
X129871904Y-121655771D01*
X129871904Y-121655771D02*
X129871904Y-121893866D01*
X129871904Y-121893866D02*
X129824285Y-122084342D01*
X129824285Y-122084342D02*
X129776666Y-122179580D01*
X129776666Y-122179580D02*
X129729047Y-122227200D01*
X129729047Y-122227200D02*
X129633809Y-122274819D01*
X129633809Y-122274819D02*
X129538571Y-122274819D01*
X129538571Y-122274819D02*
X129443333Y-122227200D01*
X129443333Y-122227200D02*
X129395714Y-122179580D01*
X129395714Y-122179580D02*
X129348095Y-122084342D01*
X129348095Y-122084342D02*
X129300476Y-121893866D01*
X129300476Y-121893866D02*
X129300476Y-121655771D01*
X129300476Y-121655771D02*
X129348095Y-121465295D01*
X129348095Y-121465295D02*
X129395714Y-121370057D01*
X129395714Y-121370057D02*
X129443333Y-121322438D01*
X129443333Y-121322438D02*
X129538571Y-121274819D01*
X130300476Y-122274819D02*
X130300476Y-121274819D01*
X130871904Y-122274819D02*
X130443333Y-121703390D01*
X130871904Y-121274819D02*
X130300476Y-121846247D01*
X125544819Y-130093333D02*
X126259104Y-130093333D01*
X126259104Y-130093333D02*
X126401961Y-130140952D01*
X126401961Y-130140952D02*
X126497200Y-130236190D01*
X126497200Y-130236190D02*
X126544819Y-130379047D01*
X126544819Y-130379047D02*
X126544819Y-130474285D01*
X126544819Y-129569523D02*
X126544819Y-129379047D01*
X126544819Y-129379047D02*
X126497200Y-129283809D01*
X126497200Y-129283809D02*
X126449580Y-129236190D01*
X126449580Y-129236190D02*
X126306723Y-129140952D01*
X126306723Y-129140952D02*
X126116247Y-129093333D01*
X126116247Y-129093333D02*
X125735295Y-129093333D01*
X125735295Y-129093333D02*
X125640057Y-129140952D01*
X125640057Y-129140952D02*
X125592438Y-129188571D01*
X125592438Y-129188571D02*
X125544819Y-129283809D01*
X125544819Y-129283809D02*
X125544819Y-129474285D01*
X125544819Y-129474285D02*
X125592438Y-129569523D01*
X125592438Y-129569523D02*
X125640057Y-129617142D01*
X125640057Y-129617142D02*
X125735295Y-129664761D01*
X125735295Y-129664761D02*
X125973390Y-129664761D01*
X125973390Y-129664761D02*
X126068628Y-129617142D01*
X126068628Y-129617142D02*
X126116247Y-129569523D01*
X126116247Y-129569523D02*
X126163866Y-129474285D01*
X126163866Y-129474285D02*
X126163866Y-129283809D01*
X126163866Y-129283809D02*
X126116247Y-129188571D01*
X126116247Y-129188571D02*
X126068628Y-129140952D01*
X126068628Y-129140952D02*
X125973390Y-129093333D01*
X133324819Y-129502856D02*
X132324819Y-129502856D01*
X132324819Y-129502856D02*
X132324819Y-129121904D01*
X132324819Y-129121904D02*
X132372438Y-129026666D01*
X132372438Y-129026666D02*
X132420057Y-128979047D01*
X132420057Y-128979047D02*
X132515295Y-128931428D01*
X132515295Y-128931428D02*
X132658152Y-128931428D01*
X132658152Y-128931428D02*
X132753390Y-128979047D01*
X132753390Y-128979047D02*
X132801009Y-129026666D01*
X132801009Y-129026666D02*
X132848628Y-129121904D01*
X132848628Y-129121904D02*
X132848628Y-129502856D01*
X133324819Y-128074285D02*
X132801009Y-128074285D01*
X132801009Y-128074285D02*
X132705771Y-128121904D01*
X132705771Y-128121904D02*
X132658152Y-128217142D01*
X132658152Y-128217142D02*
X132658152Y-128407618D01*
X132658152Y-128407618D02*
X132705771Y-128502856D01*
X133277200Y-128074285D02*
X133324819Y-128169523D01*
X133324819Y-128169523D02*
X133324819Y-128407618D01*
X133324819Y-128407618D02*
X133277200Y-128502856D01*
X133277200Y-128502856D02*
X133181961Y-128550475D01*
X133181961Y-128550475D02*
X133086723Y-128550475D01*
X133086723Y-128550475D02*
X132991485Y-128502856D01*
X132991485Y-128502856D02*
X132943866Y-128407618D01*
X132943866Y-128407618D02*
X132943866Y-128169523D01*
X132943866Y-128169523D02*
X132896247Y-128074285D01*
X133324819Y-127598094D02*
X132658152Y-127598094D01*
X132324819Y-127598094D02*
X132372438Y-127645713D01*
X132372438Y-127645713D02*
X132420057Y-127598094D01*
X132420057Y-127598094D02*
X132372438Y-127550475D01*
X132372438Y-127550475D02*
X132324819Y-127598094D01*
X132324819Y-127598094D02*
X132420057Y-127598094D01*
X133324819Y-127121904D02*
X132658152Y-127121904D01*
X132848628Y-127121904D02*
X132753390Y-127074285D01*
X132753390Y-127074285D02*
X132705771Y-127026666D01*
X132705771Y-127026666D02*
X132658152Y-126931428D01*
X132658152Y-126931428D02*
X132658152Y-126836190D01*
X133277200Y-125788570D02*
X133324819Y-125645713D01*
X133324819Y-125645713D02*
X133324819Y-125407618D01*
X133324819Y-125407618D02*
X133277200Y-125312380D01*
X133277200Y-125312380D02*
X133229580Y-125264761D01*
X133229580Y-125264761D02*
X133134342Y-125217142D01*
X133134342Y-125217142D02*
X133039104Y-125217142D01*
X133039104Y-125217142D02*
X132943866Y-125264761D01*
X132943866Y-125264761D02*
X132896247Y-125312380D01*
X132896247Y-125312380D02*
X132848628Y-125407618D01*
X132848628Y-125407618D02*
X132801009Y-125598094D01*
X132801009Y-125598094D02*
X132753390Y-125693332D01*
X132753390Y-125693332D02*
X132705771Y-125740951D01*
X132705771Y-125740951D02*
X132610533Y-125788570D01*
X132610533Y-125788570D02*
X132515295Y-125788570D01*
X132515295Y-125788570D02*
X132420057Y-125740951D01*
X132420057Y-125740951D02*
X132372438Y-125693332D01*
X132372438Y-125693332D02*
X132324819Y-125598094D01*
X132324819Y-125598094D02*
X132324819Y-125359999D01*
X132324819Y-125359999D02*
X132372438Y-125217142D01*
X132658152Y-124883808D02*
X133324819Y-124693332D01*
X133324819Y-124693332D02*
X132848628Y-124502856D01*
X132848628Y-124502856D02*
X133324819Y-124312380D01*
X133324819Y-124312380D02*
X132658152Y-124121904D01*
X135874819Y-109199523D02*
X136589104Y-109199523D01*
X136589104Y-109199523D02*
X136731961Y-109247142D01*
X136731961Y-109247142D02*
X136827200Y-109342380D01*
X136827200Y-109342380D02*
X136874819Y-109485237D01*
X136874819Y-109485237D02*
X136874819Y-109580475D01*
X136874819Y-108199523D02*
X136874819Y-108770951D01*
X136874819Y-108485237D02*
X135874819Y-108485237D01*
X135874819Y-108485237D02*
X136017676Y-108580475D01*
X136017676Y-108580475D02*
X136112914Y-108675713D01*
X136112914Y-108675713D02*
X136160533Y-108770951D01*
X135874819Y-107866189D02*
X135874819Y-107247142D01*
X135874819Y-107247142D02*
X136255771Y-107580475D01*
X136255771Y-107580475D02*
X136255771Y-107437618D01*
X136255771Y-107437618D02*
X136303390Y-107342380D01*
X136303390Y-107342380D02*
X136351009Y-107294761D01*
X136351009Y-107294761D02*
X136446247Y-107247142D01*
X136446247Y-107247142D02*
X136684342Y-107247142D01*
X136684342Y-107247142D02*
X136779580Y-107294761D01*
X136779580Y-107294761D02*
X136827200Y-107342380D01*
X136827200Y-107342380D02*
X136874819Y-107437618D01*
X136874819Y-107437618D02*
X136874819Y-107723332D01*
X136874819Y-107723332D02*
X136827200Y-107818570D01*
X136827200Y-107818570D02*
X136779580Y-107866189D01*
X143874819Y-111289047D02*
X142874819Y-111289047D01*
X142874819Y-111289047D02*
X142874819Y-110908095D01*
X142874819Y-110908095D02*
X142922438Y-110812857D01*
X142922438Y-110812857D02*
X142970057Y-110765238D01*
X142970057Y-110765238D02*
X143065295Y-110717619D01*
X143065295Y-110717619D02*
X143208152Y-110717619D01*
X143208152Y-110717619D02*
X143303390Y-110765238D01*
X143303390Y-110765238D02*
X143351009Y-110812857D01*
X143351009Y-110812857D02*
X143398628Y-110908095D01*
X143398628Y-110908095D02*
X143398628Y-111289047D01*
X143874819Y-109860476D02*
X143351009Y-109860476D01*
X143351009Y-109860476D02*
X143255771Y-109908095D01*
X143255771Y-109908095D02*
X143208152Y-110003333D01*
X143208152Y-110003333D02*
X143208152Y-110193809D01*
X143208152Y-110193809D02*
X143255771Y-110289047D01*
X143827200Y-109860476D02*
X143874819Y-109955714D01*
X143874819Y-109955714D02*
X143874819Y-110193809D01*
X143874819Y-110193809D02*
X143827200Y-110289047D01*
X143827200Y-110289047D02*
X143731961Y-110336666D01*
X143731961Y-110336666D02*
X143636723Y-110336666D01*
X143636723Y-110336666D02*
X143541485Y-110289047D01*
X143541485Y-110289047D02*
X143493866Y-110193809D01*
X143493866Y-110193809D02*
X143493866Y-109955714D01*
X143493866Y-109955714D02*
X143446247Y-109860476D01*
X143874819Y-109384285D02*
X143208152Y-109384285D01*
X142874819Y-109384285D02*
X142922438Y-109431904D01*
X142922438Y-109431904D02*
X142970057Y-109384285D01*
X142970057Y-109384285D02*
X142922438Y-109336666D01*
X142922438Y-109336666D02*
X142874819Y-109384285D01*
X142874819Y-109384285D02*
X142970057Y-109384285D01*
X143874819Y-108908095D02*
X143208152Y-108908095D01*
X143398628Y-108908095D02*
X143303390Y-108860476D01*
X143303390Y-108860476D02*
X143255771Y-108812857D01*
X143255771Y-108812857D02*
X143208152Y-108717619D01*
X143208152Y-108717619D02*
X143208152Y-108622381D01*
X143874819Y-107812857D02*
X143874819Y-108289047D01*
X143874819Y-108289047D02*
X142874819Y-108289047D01*
X143351009Y-107479523D02*
X143351009Y-107146190D01*
X143874819Y-107003333D02*
X143874819Y-107479523D01*
X143874819Y-107479523D02*
X142874819Y-107479523D01*
X142874819Y-107479523D02*
X142874819Y-107003333D01*
X143874819Y-106574761D02*
X142874819Y-106574761D01*
X142874819Y-106574761D02*
X142874819Y-106336666D01*
X142874819Y-106336666D02*
X142922438Y-106193809D01*
X142922438Y-106193809D02*
X143017676Y-106098571D01*
X143017676Y-106098571D02*
X143112914Y-106050952D01*
X143112914Y-106050952D02*
X143303390Y-106003333D01*
X143303390Y-106003333D02*
X143446247Y-106003333D01*
X143446247Y-106003333D02*
X143636723Y-106050952D01*
X143636723Y-106050952D02*
X143731961Y-106098571D01*
X143731961Y-106098571D02*
X143827200Y-106193809D01*
X143827200Y-106193809D02*
X143874819Y-106336666D01*
X143874819Y-106336666D02*
X143874819Y-106574761D01*
X125854819Y-104729523D02*
X126569104Y-104729523D01*
X126569104Y-104729523D02*
X126711961Y-104777142D01*
X126711961Y-104777142D02*
X126807200Y-104872380D01*
X126807200Y-104872380D02*
X126854819Y-105015237D01*
X126854819Y-105015237D02*
X126854819Y-105110475D01*
X126854819Y-103729523D02*
X126854819Y-104300951D01*
X126854819Y-104015237D02*
X125854819Y-104015237D01*
X125854819Y-104015237D02*
X125997676Y-104110475D01*
X125997676Y-104110475D02*
X126092914Y-104205713D01*
X126092914Y-104205713D02*
X126140533Y-104300951D01*
X125854819Y-102824761D02*
X125854819Y-103300951D01*
X125854819Y-103300951D02*
X126331009Y-103348570D01*
X126331009Y-103348570D02*
X126283390Y-103300951D01*
X126283390Y-103300951D02*
X126235771Y-103205713D01*
X126235771Y-103205713D02*
X126235771Y-102967618D01*
X126235771Y-102967618D02*
X126283390Y-102872380D01*
X126283390Y-102872380D02*
X126331009Y-102824761D01*
X126331009Y-102824761D02*
X126426247Y-102777142D01*
X126426247Y-102777142D02*
X126664342Y-102777142D01*
X126664342Y-102777142D02*
X126759580Y-102824761D01*
X126759580Y-102824761D02*
X126807200Y-102872380D01*
X126807200Y-102872380D02*
X126854819Y-102967618D01*
X126854819Y-102967618D02*
X126854819Y-103205713D01*
X126854819Y-103205713D02*
X126807200Y-103300951D01*
X126807200Y-103300951D02*
X126759580Y-103348570D01*
X132764819Y-106634761D02*
X133764819Y-106396666D01*
X133764819Y-106396666D02*
X133050533Y-106206190D01*
X133050533Y-106206190D02*
X133764819Y-106015714D01*
X133764819Y-106015714D02*
X132764819Y-105777619D01*
X133764819Y-105396666D02*
X132764819Y-105396666D01*
X133764819Y-104968095D02*
X133241009Y-104968095D01*
X133241009Y-104968095D02*
X133145771Y-105015714D01*
X133145771Y-105015714D02*
X133098152Y-105110952D01*
X133098152Y-105110952D02*
X133098152Y-105253809D01*
X133098152Y-105253809D02*
X133145771Y-105349047D01*
X133145771Y-105349047D02*
X133193390Y-105396666D01*
X133717200Y-104110952D02*
X133764819Y-104206190D01*
X133764819Y-104206190D02*
X133764819Y-104396666D01*
X133764819Y-104396666D02*
X133717200Y-104491904D01*
X133717200Y-104491904D02*
X133621961Y-104539523D01*
X133621961Y-104539523D02*
X133241009Y-104539523D01*
X133241009Y-104539523D02*
X133145771Y-104491904D01*
X133145771Y-104491904D02*
X133098152Y-104396666D01*
X133098152Y-104396666D02*
X133098152Y-104206190D01*
X133098152Y-104206190D02*
X133145771Y-104110952D01*
X133145771Y-104110952D02*
X133241009Y-104063333D01*
X133241009Y-104063333D02*
X133336247Y-104063333D01*
X133336247Y-104063333D02*
X133431485Y-104539523D01*
X133717200Y-103253809D02*
X133764819Y-103349047D01*
X133764819Y-103349047D02*
X133764819Y-103539523D01*
X133764819Y-103539523D02*
X133717200Y-103634761D01*
X133717200Y-103634761D02*
X133621961Y-103682380D01*
X133621961Y-103682380D02*
X133241009Y-103682380D01*
X133241009Y-103682380D02*
X133145771Y-103634761D01*
X133145771Y-103634761D02*
X133098152Y-103539523D01*
X133098152Y-103539523D02*
X133098152Y-103349047D01*
X133098152Y-103349047D02*
X133145771Y-103253809D01*
X133145771Y-103253809D02*
X133241009Y-103206190D01*
X133241009Y-103206190D02*
X133336247Y-103206190D01*
X133336247Y-103206190D02*
X133431485Y-103682380D01*
X133764819Y-102634761D02*
X133717200Y-102729999D01*
X133717200Y-102729999D02*
X133621961Y-102777618D01*
X133621961Y-102777618D02*
X132764819Y-102777618D01*
X133717200Y-102301427D02*
X133764819Y-102206189D01*
X133764819Y-102206189D02*
X133764819Y-102015713D01*
X133764819Y-102015713D02*
X133717200Y-101920475D01*
X133717200Y-101920475D02*
X133621961Y-101872856D01*
X133621961Y-101872856D02*
X133574342Y-101872856D01*
X133574342Y-101872856D02*
X133479104Y-101920475D01*
X133479104Y-101920475D02*
X133431485Y-102015713D01*
X133431485Y-102015713D02*
X133431485Y-102158570D01*
X133431485Y-102158570D02*
X133383866Y-102253808D01*
X133383866Y-102253808D02*
X133288628Y-102301427D01*
X133288628Y-102301427D02*
X133241009Y-102301427D01*
X133241009Y-102301427D02*
X133145771Y-102253808D01*
X133145771Y-102253808D02*
X133098152Y-102158570D01*
X133098152Y-102158570D02*
X133098152Y-102015713D01*
X133098152Y-102015713D02*
X133145771Y-101920475D01*
X125714819Y-94389523D02*
X126429104Y-94389523D01*
X126429104Y-94389523D02*
X126571961Y-94437142D01*
X126571961Y-94437142D02*
X126667200Y-94532380D01*
X126667200Y-94532380D02*
X126714819Y-94675237D01*
X126714819Y-94675237D02*
X126714819Y-94770475D01*
X126714819Y-93389523D02*
X126714819Y-93960951D01*
X126714819Y-93675237D02*
X125714819Y-93675237D01*
X125714819Y-93675237D02*
X125857676Y-93770475D01*
X125857676Y-93770475D02*
X125952914Y-93865713D01*
X125952914Y-93865713D02*
X126000533Y-93960951D01*
X125714819Y-92532380D02*
X125714819Y-92722856D01*
X125714819Y-92722856D02*
X125762438Y-92818094D01*
X125762438Y-92818094D02*
X125810057Y-92865713D01*
X125810057Y-92865713D02*
X125952914Y-92960951D01*
X125952914Y-92960951D02*
X126143390Y-93008570D01*
X126143390Y-93008570D02*
X126524342Y-93008570D01*
X126524342Y-93008570D02*
X126619580Y-92960951D01*
X126619580Y-92960951D02*
X126667200Y-92913332D01*
X126667200Y-92913332D02*
X126714819Y-92818094D01*
X126714819Y-92818094D02*
X126714819Y-92627618D01*
X126714819Y-92627618D02*
X126667200Y-92532380D01*
X126667200Y-92532380D02*
X126619580Y-92484761D01*
X126619580Y-92484761D02*
X126524342Y-92437142D01*
X126524342Y-92437142D02*
X126286247Y-92437142D01*
X126286247Y-92437142D02*
X126191009Y-92484761D01*
X126191009Y-92484761D02*
X126143390Y-92532380D01*
X126143390Y-92532380D02*
X126095771Y-92627618D01*
X126095771Y-92627618D02*
X126095771Y-92818094D01*
X126095771Y-92818094D02*
X126143390Y-92913332D01*
X126143390Y-92913332D02*
X126191009Y-92960951D01*
X126191009Y-92960951D02*
X126286247Y-93008570D01*
X132874819Y-94241428D02*
X132874819Y-93670000D01*
X133874819Y-93955714D02*
X132874819Y-93955714D01*
X133208152Y-92908095D02*
X133874819Y-92908095D01*
X133208152Y-93336666D02*
X133731961Y-93336666D01*
X133731961Y-93336666D02*
X133827200Y-93289047D01*
X133827200Y-93289047D02*
X133874819Y-93193809D01*
X133874819Y-93193809D02*
X133874819Y-93050952D01*
X133874819Y-93050952D02*
X133827200Y-92955714D01*
X133827200Y-92955714D02*
X133779580Y-92908095D01*
X133874819Y-92431904D02*
X133208152Y-92431904D01*
X133398628Y-92431904D02*
X133303390Y-92384285D01*
X133303390Y-92384285D02*
X133255771Y-92336666D01*
X133255771Y-92336666D02*
X133208152Y-92241428D01*
X133208152Y-92241428D02*
X133208152Y-92146190D01*
X133874819Y-91812856D02*
X133208152Y-91812856D01*
X133398628Y-91812856D02*
X133303390Y-91765237D01*
X133303390Y-91765237D02*
X133255771Y-91717618D01*
X133255771Y-91717618D02*
X133208152Y-91622380D01*
X133208152Y-91622380D02*
X133208152Y-91527142D01*
X133827200Y-90812856D02*
X133874819Y-90908094D01*
X133874819Y-90908094D02*
X133874819Y-91098570D01*
X133874819Y-91098570D02*
X133827200Y-91193808D01*
X133827200Y-91193808D02*
X133731961Y-91241427D01*
X133731961Y-91241427D02*
X133351009Y-91241427D01*
X133351009Y-91241427D02*
X133255771Y-91193808D01*
X133255771Y-91193808D02*
X133208152Y-91098570D01*
X133208152Y-91098570D02*
X133208152Y-90908094D01*
X133208152Y-90908094D02*
X133255771Y-90812856D01*
X133255771Y-90812856D02*
X133351009Y-90765237D01*
X133351009Y-90765237D02*
X133446247Y-90765237D01*
X133446247Y-90765237D02*
X133541485Y-91241427D01*
X133208152Y-90479522D02*
X133208152Y-90098570D01*
X132874819Y-90336665D02*
X133731961Y-90336665D01*
X133731961Y-90336665D02*
X133827200Y-90289046D01*
X133827200Y-90289046D02*
X133874819Y-90193808D01*
X133874819Y-90193808D02*
X133874819Y-90098570D01*
X126593333Y-113054819D02*
X126260000Y-112578628D01*
X126021905Y-113054819D02*
X126021905Y-112054819D01*
X126021905Y-112054819D02*
X126402857Y-112054819D01*
X126402857Y-112054819D02*
X126498095Y-112102438D01*
X126498095Y-112102438D02*
X126545714Y-112150057D01*
X126545714Y-112150057D02*
X126593333Y-112245295D01*
X126593333Y-112245295D02*
X126593333Y-112388152D01*
X126593333Y-112388152D02*
X126545714Y-112483390D01*
X126545714Y-112483390D02*
X126498095Y-112531009D01*
X126498095Y-112531009D02*
X126402857Y-112578628D01*
X126402857Y-112578628D02*
X126021905Y-112578628D01*
X127450476Y-112388152D02*
X127450476Y-113054819D01*
X127212381Y-112007200D02*
X126974286Y-112721485D01*
X126974286Y-112721485D02*
X127593333Y-112721485D01*
X132257333Y-113934819D02*
X131685905Y-113934819D01*
X131971619Y-113934819D02*
X131971619Y-112934819D01*
X131971619Y-112934819D02*
X131876381Y-113077676D01*
X131876381Y-113077676D02*
X131781143Y-113172914D01*
X131781143Y-113172914D02*
X131685905Y-113220533D01*
X132876381Y-112934819D02*
X132971619Y-112934819D01*
X132971619Y-112934819D02*
X133066857Y-112982438D01*
X133066857Y-112982438D02*
X133114476Y-113030057D01*
X133114476Y-113030057D02*
X133162095Y-113125295D01*
X133162095Y-113125295D02*
X133209714Y-113315771D01*
X133209714Y-113315771D02*
X133209714Y-113553866D01*
X133209714Y-113553866D02*
X133162095Y-113744342D01*
X133162095Y-113744342D02*
X133114476Y-113839580D01*
X133114476Y-113839580D02*
X133066857Y-113887200D01*
X133066857Y-113887200D02*
X132971619Y-113934819D01*
X132971619Y-113934819D02*
X132876381Y-113934819D01*
X132876381Y-113934819D02*
X132781143Y-113887200D01*
X132781143Y-113887200D02*
X132733524Y-113839580D01*
X132733524Y-113839580D02*
X132685905Y-113744342D01*
X132685905Y-113744342D02*
X132638286Y-113553866D01*
X132638286Y-113553866D02*
X132638286Y-113315771D01*
X132638286Y-113315771D02*
X132685905Y-113125295D01*
X132685905Y-113125295D02*
X132733524Y-113030057D01*
X132733524Y-113030057D02*
X132781143Y-112982438D01*
X132781143Y-112982438D02*
X132876381Y-112934819D01*
X133828762Y-112934819D02*
X133924000Y-112934819D01*
X133924000Y-112934819D02*
X134019238Y-112982438D01*
X134019238Y-112982438D02*
X134066857Y-113030057D01*
X134066857Y-113030057D02*
X134114476Y-113125295D01*
X134114476Y-113125295D02*
X134162095Y-113315771D01*
X134162095Y-113315771D02*
X134162095Y-113553866D01*
X134162095Y-113553866D02*
X134114476Y-113744342D01*
X134114476Y-113744342D02*
X134066857Y-113839580D01*
X134066857Y-113839580D02*
X134019238Y-113887200D01*
X134019238Y-113887200D02*
X133924000Y-113934819D01*
X133924000Y-113934819D02*
X133828762Y-113934819D01*
X133828762Y-113934819D02*
X133733524Y-113887200D01*
X133733524Y-113887200D02*
X133685905Y-113839580D01*
X133685905Y-113839580D02*
X133638286Y-113744342D01*
X133638286Y-113744342D02*
X133590667Y-113553866D01*
X133590667Y-113553866D02*
X133590667Y-113315771D01*
X133590667Y-113315771D02*
X133638286Y-113125295D01*
X133638286Y-113125295D02*
X133685905Y-113030057D01*
X133685905Y-113030057D02*
X133733524Y-112982438D01*
X133733524Y-112982438D02*
X133828762Y-112934819D01*
X152633333Y-115894819D02*
X152300000Y-115418628D01*
X152061905Y-115894819D02*
X152061905Y-114894819D01*
X152061905Y-114894819D02*
X152442857Y-114894819D01*
X152442857Y-114894819D02*
X152538095Y-114942438D01*
X152538095Y-114942438D02*
X152585714Y-114990057D01*
X152585714Y-114990057D02*
X152633333Y-115085295D01*
X152633333Y-115085295D02*
X152633333Y-115228152D01*
X152633333Y-115228152D02*
X152585714Y-115323390D01*
X152585714Y-115323390D02*
X152538095Y-115371009D01*
X152538095Y-115371009D02*
X152442857Y-115418628D01*
X152442857Y-115418628D02*
X152061905Y-115418628D01*
X153109524Y-115894819D02*
X153300000Y-115894819D01*
X153300000Y-115894819D02*
X153395238Y-115847200D01*
X153395238Y-115847200D02*
X153442857Y-115799580D01*
X153442857Y-115799580D02*
X153538095Y-115656723D01*
X153538095Y-115656723D02*
X153585714Y-115466247D01*
X153585714Y-115466247D02*
X153585714Y-115085295D01*
X153585714Y-115085295D02*
X153538095Y-114990057D01*
X153538095Y-114990057D02*
X153490476Y-114942438D01*
X153490476Y-114942438D02*
X153395238Y-114894819D01*
X153395238Y-114894819D02*
X153204762Y-114894819D01*
X153204762Y-114894819D02*
X153109524Y-114942438D01*
X153109524Y-114942438D02*
X153061905Y-114990057D01*
X153061905Y-114990057D02*
X153014286Y-115085295D01*
X153014286Y-115085295D02*
X153014286Y-115323390D01*
X153014286Y-115323390D02*
X153061905Y-115418628D01*
X153061905Y-115418628D02*
X153109524Y-115466247D01*
X153109524Y-115466247D02*
X153204762Y-115513866D01*
X153204762Y-115513866D02*
X153395238Y-115513866D01*
X153395238Y-115513866D02*
X153490476Y-115466247D01*
X153490476Y-115466247D02*
X153538095Y-115418628D01*
X153538095Y-115418628D02*
X153585714Y-115323390D01*
X152038095Y-116440057D02*
X152085714Y-116392438D01*
X152085714Y-116392438D02*
X152180952Y-116344819D01*
X152180952Y-116344819D02*
X152419047Y-116344819D01*
X152419047Y-116344819D02*
X152514285Y-116392438D01*
X152514285Y-116392438D02*
X152561904Y-116440057D01*
X152561904Y-116440057D02*
X152609523Y-116535295D01*
X152609523Y-116535295D02*
X152609523Y-116630533D01*
X152609523Y-116630533D02*
X152561904Y-116773390D01*
X152561904Y-116773390D02*
X151990476Y-117344819D01*
X151990476Y-117344819D02*
X152609523Y-117344819D01*
X152990476Y-116440057D02*
X153038095Y-116392438D01*
X153038095Y-116392438D02*
X153133333Y-116344819D01*
X153133333Y-116344819D02*
X153371428Y-116344819D01*
X153371428Y-116344819D02*
X153466666Y-116392438D01*
X153466666Y-116392438D02*
X153514285Y-116440057D01*
X153514285Y-116440057D02*
X153561904Y-116535295D01*
X153561904Y-116535295D02*
X153561904Y-116630533D01*
X153561904Y-116630533D02*
X153514285Y-116773390D01*
X153514285Y-116773390D02*
X152942857Y-117344819D01*
X152942857Y-117344819D02*
X153561904Y-117344819D01*
X156437142Y-121084819D02*
X155960952Y-121084819D01*
X155960952Y-121084819D02*
X155960952Y-120084819D01*
X156722857Y-121037200D02*
X156865714Y-121084819D01*
X156865714Y-121084819D02*
X157103809Y-121084819D01*
X157103809Y-121084819D02*
X157199047Y-121037200D01*
X157199047Y-121037200D02*
X157246666Y-120989580D01*
X157246666Y-120989580D02*
X157294285Y-120894342D01*
X157294285Y-120894342D02*
X157294285Y-120799104D01*
X157294285Y-120799104D02*
X157246666Y-120703866D01*
X157246666Y-120703866D02*
X157199047Y-120656247D01*
X157199047Y-120656247D02*
X157103809Y-120608628D01*
X157103809Y-120608628D02*
X156913333Y-120561009D01*
X156913333Y-120561009D02*
X156818095Y-120513390D01*
X156818095Y-120513390D02*
X156770476Y-120465771D01*
X156770476Y-120465771D02*
X156722857Y-120370533D01*
X156722857Y-120370533D02*
X156722857Y-120275295D01*
X156722857Y-120275295D02*
X156770476Y-120180057D01*
X156770476Y-120180057D02*
X156818095Y-120132438D01*
X156818095Y-120132438D02*
X156913333Y-120084819D01*
X156913333Y-120084819D02*
X157151428Y-120084819D01*
X157151428Y-120084819D02*
X157294285Y-120132438D01*
X158246666Y-121084819D02*
X157675238Y-121084819D01*
X157960952Y-121084819D02*
X157960952Y-120084819D01*
X157960952Y-120084819D02*
X157865714Y-120227676D01*
X157865714Y-120227676D02*
X157770476Y-120322914D01*
X157770476Y-120322914D02*
X157675238Y-120370533D01*
X152239048Y-127433866D02*
X153000953Y-127433866D01*
X152620000Y-127814819D02*
X152620000Y-127052914D01*
X134684819Y-124726666D02*
X134208628Y-125059999D01*
X134684819Y-125298094D02*
X133684819Y-125298094D01*
X133684819Y-125298094D02*
X133684819Y-124917142D01*
X133684819Y-124917142D02*
X133732438Y-124821904D01*
X133732438Y-124821904D02*
X133780057Y-124774285D01*
X133780057Y-124774285D02*
X133875295Y-124726666D01*
X133875295Y-124726666D02*
X134018152Y-124726666D01*
X134018152Y-124726666D02*
X134113390Y-124774285D01*
X134113390Y-124774285D02*
X134161009Y-124821904D01*
X134161009Y-124821904D02*
X134208628Y-124917142D01*
X134208628Y-124917142D02*
X134208628Y-125298094D01*
X133780057Y-124345713D02*
X133732438Y-124298094D01*
X133732438Y-124298094D02*
X133684819Y-124202856D01*
X133684819Y-124202856D02*
X133684819Y-123964761D01*
X133684819Y-123964761D02*
X133732438Y-123869523D01*
X133732438Y-123869523D02*
X133780057Y-123821904D01*
X133780057Y-123821904D02*
X133875295Y-123774285D01*
X133875295Y-123774285D02*
X133970533Y-123774285D01*
X133970533Y-123774285D02*
X134113390Y-123821904D01*
X134113390Y-123821904D02*
X134684819Y-124393332D01*
X134684819Y-124393332D02*
X134684819Y-123774285D01*
X136454819Y-124476666D02*
X136454819Y-125048094D01*
X136454819Y-124762380D02*
X135454819Y-124762380D01*
X135454819Y-124762380D02*
X135597676Y-124857618D01*
X135597676Y-124857618D02*
X135692914Y-124952856D01*
X135692914Y-124952856D02*
X135740533Y-125048094D01*
X135454819Y-123857618D02*
X135454819Y-123762380D01*
X135454819Y-123762380D02*
X135502438Y-123667142D01*
X135502438Y-123667142D02*
X135550057Y-123619523D01*
X135550057Y-123619523D02*
X135645295Y-123571904D01*
X135645295Y-123571904D02*
X135835771Y-123524285D01*
X135835771Y-123524285D02*
X136073866Y-123524285D01*
X136073866Y-123524285D02*
X136264342Y-123571904D01*
X136264342Y-123571904D02*
X136359580Y-123619523D01*
X136359580Y-123619523D02*
X136407200Y-123667142D01*
X136407200Y-123667142D02*
X136454819Y-123762380D01*
X136454819Y-123762380D02*
X136454819Y-123857618D01*
X136454819Y-123857618D02*
X136407200Y-123952856D01*
X136407200Y-123952856D02*
X136359580Y-124000475D01*
X136359580Y-124000475D02*
X136264342Y-124048094D01*
X136264342Y-124048094D02*
X136073866Y-124095713D01*
X136073866Y-124095713D02*
X135835771Y-124095713D01*
X135835771Y-124095713D02*
X135645295Y-124048094D01*
X135645295Y-124048094D02*
X135550057Y-124000475D01*
X135550057Y-124000475D02*
X135502438Y-123952856D01*
X135502438Y-123952856D02*
X135454819Y-123857618D01*
X135454819Y-122905237D02*
X135454819Y-122809999D01*
X135454819Y-122809999D02*
X135502438Y-122714761D01*
X135502438Y-122714761D02*
X135550057Y-122667142D01*
X135550057Y-122667142D02*
X135645295Y-122619523D01*
X135645295Y-122619523D02*
X135835771Y-122571904D01*
X135835771Y-122571904D02*
X136073866Y-122571904D01*
X136073866Y-122571904D02*
X136264342Y-122619523D01*
X136264342Y-122619523D02*
X136359580Y-122667142D01*
X136359580Y-122667142D02*
X136407200Y-122714761D01*
X136407200Y-122714761D02*
X136454819Y-122809999D01*
X136454819Y-122809999D02*
X136454819Y-122905237D01*
X136454819Y-122905237D02*
X136407200Y-123000475D01*
X136407200Y-123000475D02*
X136359580Y-123048094D01*
X136359580Y-123048094D02*
X136264342Y-123095713D01*
X136264342Y-123095713D02*
X136073866Y-123143332D01*
X136073866Y-123143332D02*
X135835771Y-123143332D01*
X135835771Y-123143332D02*
X135645295Y-123095713D01*
X135645295Y-123095713D02*
X135550057Y-123048094D01*
X135550057Y-123048094D02*
X135502438Y-123000475D01*
X135502438Y-123000475D02*
X135454819Y-122905237D01*
X148953333Y-93734819D02*
X148620000Y-93258628D01*
X148381905Y-93734819D02*
X148381905Y-92734819D01*
X148381905Y-92734819D02*
X148762857Y-92734819D01*
X148762857Y-92734819D02*
X148858095Y-92782438D01*
X148858095Y-92782438D02*
X148905714Y-92830057D01*
X148905714Y-92830057D02*
X148953333Y-92925295D01*
X148953333Y-92925295D02*
X148953333Y-93068152D01*
X148953333Y-93068152D02*
X148905714Y-93163390D01*
X148905714Y-93163390D02*
X148858095Y-93211009D01*
X148858095Y-93211009D02*
X148762857Y-93258628D01*
X148762857Y-93258628D02*
X148381905Y-93258628D01*
X149810476Y-92734819D02*
X149620000Y-92734819D01*
X149620000Y-92734819D02*
X149524762Y-92782438D01*
X149524762Y-92782438D02*
X149477143Y-92830057D01*
X149477143Y-92830057D02*
X149381905Y-92972914D01*
X149381905Y-92972914D02*
X149334286Y-93163390D01*
X149334286Y-93163390D02*
X149334286Y-93544342D01*
X149334286Y-93544342D02*
X149381905Y-93639580D01*
X149381905Y-93639580D02*
X149429524Y-93687200D01*
X149429524Y-93687200D02*
X149524762Y-93734819D01*
X149524762Y-93734819D02*
X149715238Y-93734819D01*
X149715238Y-93734819D02*
X149810476Y-93687200D01*
X149810476Y-93687200D02*
X149858095Y-93639580D01*
X149858095Y-93639580D02*
X149905714Y-93544342D01*
X149905714Y-93544342D02*
X149905714Y-93306247D01*
X149905714Y-93306247D02*
X149858095Y-93211009D01*
X149858095Y-93211009D02*
X149810476Y-93163390D01*
X149810476Y-93163390D02*
X149715238Y-93115771D01*
X149715238Y-93115771D02*
X149524762Y-93115771D01*
X149524762Y-93115771D02*
X149429524Y-93163390D01*
X149429524Y-93163390D02*
X149381905Y-93211009D01*
X149381905Y-93211009D02*
X149334286Y-93306247D01*
X148429523Y-95612819D02*
X147858095Y-95612819D01*
X148143809Y-95612819D02*
X148143809Y-94612819D01*
X148143809Y-94612819D02*
X148048571Y-94755676D01*
X148048571Y-94755676D02*
X147953333Y-94850914D01*
X147953333Y-94850914D02*
X147858095Y-94898533D01*
X149048571Y-94612819D02*
X149143809Y-94612819D01*
X149143809Y-94612819D02*
X149239047Y-94660438D01*
X149239047Y-94660438D02*
X149286666Y-94708057D01*
X149286666Y-94708057D02*
X149334285Y-94803295D01*
X149334285Y-94803295D02*
X149381904Y-94993771D01*
X149381904Y-94993771D02*
X149381904Y-95231866D01*
X149381904Y-95231866D02*
X149334285Y-95422342D01*
X149334285Y-95422342D02*
X149286666Y-95517580D01*
X149286666Y-95517580D02*
X149239047Y-95565200D01*
X149239047Y-95565200D02*
X149143809Y-95612819D01*
X149143809Y-95612819D02*
X149048571Y-95612819D01*
X149048571Y-95612819D02*
X148953333Y-95565200D01*
X148953333Y-95565200D02*
X148905714Y-95517580D01*
X148905714Y-95517580D02*
X148858095Y-95422342D01*
X148858095Y-95422342D02*
X148810476Y-95231866D01*
X148810476Y-95231866D02*
X148810476Y-94993771D01*
X148810476Y-94993771D02*
X148858095Y-94803295D01*
X148858095Y-94803295D02*
X148905714Y-94708057D01*
X148905714Y-94708057D02*
X148953333Y-94660438D01*
X148953333Y-94660438D02*
X149048571Y-94612819D01*
X149810476Y-95612819D02*
X149810476Y-94612819D01*
X150381904Y-95612819D02*
X149953333Y-95041390D01*
X150381904Y-94612819D02*
X149810476Y-95184247D01*
X135700819Y-80531333D02*
X136415104Y-80531333D01*
X136415104Y-80531333D02*
X136557961Y-80578952D01*
X136557961Y-80578952D02*
X136653200Y-80674190D01*
X136653200Y-80674190D02*
X136700819Y-80817047D01*
X136700819Y-80817047D02*
X136700819Y-80912285D01*
X135700819Y-80150380D02*
X135700819Y-79483714D01*
X135700819Y-79483714D02*
X136700819Y-79912285D01*
X143494819Y-81089047D02*
X143018628Y-81422380D01*
X143494819Y-81660475D02*
X142494819Y-81660475D01*
X142494819Y-81660475D02*
X142494819Y-81279523D01*
X142494819Y-81279523D02*
X142542438Y-81184285D01*
X142542438Y-81184285D02*
X142590057Y-81136666D01*
X142590057Y-81136666D02*
X142685295Y-81089047D01*
X142685295Y-81089047D02*
X142828152Y-81089047D01*
X142828152Y-81089047D02*
X142923390Y-81136666D01*
X142923390Y-81136666D02*
X142971009Y-81184285D01*
X142971009Y-81184285D02*
X143018628Y-81279523D01*
X143018628Y-81279523D02*
X143018628Y-81660475D01*
X143494819Y-80660475D02*
X142828152Y-80660475D01*
X142494819Y-80660475D02*
X142542438Y-80708094D01*
X142542438Y-80708094D02*
X142590057Y-80660475D01*
X142590057Y-80660475D02*
X142542438Y-80612856D01*
X142542438Y-80612856D02*
X142494819Y-80660475D01*
X142494819Y-80660475D02*
X142590057Y-80660475D01*
X142828152Y-79755714D02*
X143637676Y-79755714D01*
X143637676Y-79755714D02*
X143732914Y-79803333D01*
X143732914Y-79803333D02*
X143780533Y-79850952D01*
X143780533Y-79850952D02*
X143828152Y-79946190D01*
X143828152Y-79946190D02*
X143828152Y-80089047D01*
X143828152Y-80089047D02*
X143780533Y-80184285D01*
X143447200Y-79755714D02*
X143494819Y-79850952D01*
X143494819Y-79850952D02*
X143494819Y-80041428D01*
X143494819Y-80041428D02*
X143447200Y-80136666D01*
X143447200Y-80136666D02*
X143399580Y-80184285D01*
X143399580Y-80184285D02*
X143304342Y-80231904D01*
X143304342Y-80231904D02*
X143018628Y-80231904D01*
X143018628Y-80231904D02*
X142923390Y-80184285D01*
X142923390Y-80184285D02*
X142875771Y-80136666D01*
X142875771Y-80136666D02*
X142828152Y-80041428D01*
X142828152Y-80041428D02*
X142828152Y-79850952D01*
X142828152Y-79850952D02*
X142875771Y-79755714D01*
X143494819Y-79279523D02*
X142494819Y-79279523D01*
X143494819Y-78850952D02*
X142971009Y-78850952D01*
X142971009Y-78850952D02*
X142875771Y-78898571D01*
X142875771Y-78898571D02*
X142828152Y-78993809D01*
X142828152Y-78993809D02*
X142828152Y-79136666D01*
X142828152Y-79136666D02*
X142875771Y-79231904D01*
X142875771Y-79231904D02*
X142923390Y-79279523D01*
X142828152Y-78517618D02*
X142828152Y-78136666D01*
X142494819Y-78374761D02*
X143351961Y-78374761D01*
X143351961Y-78374761D02*
X143447200Y-78327142D01*
X143447200Y-78327142D02*
X143494819Y-78231904D01*
X143494819Y-78231904D02*
X143494819Y-78136666D01*
X114435714Y-129369104D02*
X114911904Y-129369104D01*
X114340476Y-129654819D02*
X114673809Y-128654819D01*
X114673809Y-128654819D02*
X115007142Y-129654819D01*
X115864285Y-129654819D02*
X115292857Y-129654819D01*
X115578571Y-129654819D02*
X115578571Y-128654819D01*
X115578571Y-128654819D02*
X115483333Y-128797676D01*
X115483333Y-128797676D02*
X115388095Y-128892914D01*
X115388095Y-128892914D02*
X115292857Y-128940533D01*
X116411904Y-89105180D02*
X116411904Y-88295657D01*
X116411904Y-88295657D02*
X116364285Y-88200419D01*
X116364285Y-88200419D02*
X116316666Y-88152800D01*
X116316666Y-88152800D02*
X116221428Y-88105180D01*
X116221428Y-88105180D02*
X116030952Y-88105180D01*
X116030952Y-88105180D02*
X115935714Y-88152800D01*
X115935714Y-88152800D02*
X115888095Y-88200419D01*
X115888095Y-88200419D02*
X115840476Y-88295657D01*
X115840476Y-88295657D02*
X115840476Y-89105180D01*
X115411904Y-88152800D02*
X115269047Y-88105180D01*
X115269047Y-88105180D02*
X115030952Y-88105180D01*
X115030952Y-88105180D02*
X114935714Y-88152800D01*
X114935714Y-88152800D02*
X114888095Y-88200419D01*
X114888095Y-88200419D02*
X114840476Y-88295657D01*
X114840476Y-88295657D02*
X114840476Y-88390895D01*
X114840476Y-88390895D02*
X114888095Y-88486133D01*
X114888095Y-88486133D02*
X114935714Y-88533752D01*
X114935714Y-88533752D02*
X115030952Y-88581371D01*
X115030952Y-88581371D02*
X115221428Y-88628990D01*
X115221428Y-88628990D02*
X115316666Y-88676609D01*
X115316666Y-88676609D02*
X115364285Y-88724228D01*
X115364285Y-88724228D02*
X115411904Y-88819466D01*
X115411904Y-88819466D02*
X115411904Y-88914704D01*
X115411904Y-88914704D02*
X115364285Y-89009942D01*
X115364285Y-89009942D02*
X115316666Y-89057561D01*
X115316666Y-89057561D02*
X115221428Y-89105180D01*
X115221428Y-89105180D02*
X114983333Y-89105180D01*
X114983333Y-89105180D02*
X114840476Y-89057561D01*
X114078571Y-88628990D02*
X113935714Y-88581371D01*
X113935714Y-88581371D02*
X113888095Y-88533752D01*
X113888095Y-88533752D02*
X113840476Y-88438514D01*
X113840476Y-88438514D02*
X113840476Y-88295657D01*
X113840476Y-88295657D02*
X113888095Y-88200419D01*
X113888095Y-88200419D02*
X113935714Y-88152800D01*
X113935714Y-88152800D02*
X114030952Y-88105180D01*
X114030952Y-88105180D02*
X114411904Y-88105180D01*
X114411904Y-88105180D02*
X114411904Y-89105180D01*
X114411904Y-89105180D02*
X114078571Y-89105180D01*
X114078571Y-89105180D02*
X113983333Y-89057561D01*
X113983333Y-89057561D02*
X113935714Y-89009942D01*
X113935714Y-89009942D02*
X113888095Y-88914704D01*
X113888095Y-88914704D02*
X113888095Y-88819466D01*
X113888095Y-88819466D02*
X113935714Y-88724228D01*
X113935714Y-88724228D02*
X113983333Y-88676609D01*
X113983333Y-88676609D02*
X114078571Y-88628990D01*
X114078571Y-88628990D02*
X114411904Y-88628990D01*
X148933333Y-86734819D02*
X148600000Y-86258628D01*
X148361905Y-86734819D02*
X148361905Y-85734819D01*
X148361905Y-85734819D02*
X148742857Y-85734819D01*
X148742857Y-85734819D02*
X148838095Y-85782438D01*
X148838095Y-85782438D02*
X148885714Y-85830057D01*
X148885714Y-85830057D02*
X148933333Y-85925295D01*
X148933333Y-85925295D02*
X148933333Y-86068152D01*
X148933333Y-86068152D02*
X148885714Y-86163390D01*
X148885714Y-86163390D02*
X148838095Y-86211009D01*
X148838095Y-86211009D02*
X148742857Y-86258628D01*
X148742857Y-86258628D02*
X148361905Y-86258628D01*
X149266667Y-85734819D02*
X149933333Y-85734819D01*
X149933333Y-85734819D02*
X149504762Y-86734819D01*
X148409523Y-88612819D02*
X147838095Y-88612819D01*
X148123809Y-88612819D02*
X148123809Y-87612819D01*
X148123809Y-87612819D02*
X148028571Y-87755676D01*
X148028571Y-87755676D02*
X147933333Y-87850914D01*
X147933333Y-87850914D02*
X147838095Y-87898533D01*
X149028571Y-87612819D02*
X149123809Y-87612819D01*
X149123809Y-87612819D02*
X149219047Y-87660438D01*
X149219047Y-87660438D02*
X149266666Y-87708057D01*
X149266666Y-87708057D02*
X149314285Y-87803295D01*
X149314285Y-87803295D02*
X149361904Y-87993771D01*
X149361904Y-87993771D02*
X149361904Y-88231866D01*
X149361904Y-88231866D02*
X149314285Y-88422342D01*
X149314285Y-88422342D02*
X149266666Y-88517580D01*
X149266666Y-88517580D02*
X149219047Y-88565200D01*
X149219047Y-88565200D02*
X149123809Y-88612819D01*
X149123809Y-88612819D02*
X149028571Y-88612819D01*
X149028571Y-88612819D02*
X148933333Y-88565200D01*
X148933333Y-88565200D02*
X148885714Y-88517580D01*
X148885714Y-88517580D02*
X148838095Y-88422342D01*
X148838095Y-88422342D02*
X148790476Y-88231866D01*
X148790476Y-88231866D02*
X148790476Y-87993771D01*
X148790476Y-87993771D02*
X148838095Y-87803295D01*
X148838095Y-87803295D02*
X148885714Y-87708057D01*
X148885714Y-87708057D02*
X148933333Y-87660438D01*
X148933333Y-87660438D02*
X149028571Y-87612819D01*
X149790476Y-88612819D02*
X149790476Y-87612819D01*
X150361904Y-88612819D02*
X149933333Y-88041390D01*
X150361904Y-87612819D02*
X149790476Y-88184247D01*
X126473333Y-115634819D02*
X126140000Y-115158628D01*
X125901905Y-115634819D02*
X125901905Y-114634819D01*
X125901905Y-114634819D02*
X126282857Y-114634819D01*
X126282857Y-114634819D02*
X126378095Y-114682438D01*
X126378095Y-114682438D02*
X126425714Y-114730057D01*
X126425714Y-114730057D02*
X126473333Y-114825295D01*
X126473333Y-114825295D02*
X126473333Y-114968152D01*
X126473333Y-114968152D02*
X126425714Y-115063390D01*
X126425714Y-115063390D02*
X126378095Y-115111009D01*
X126378095Y-115111009D02*
X126282857Y-115158628D01*
X126282857Y-115158628D02*
X125901905Y-115158628D01*
X126806667Y-114634819D02*
X127425714Y-114634819D01*
X127425714Y-114634819D02*
X127092381Y-115015771D01*
X127092381Y-115015771D02*
X127235238Y-115015771D01*
X127235238Y-115015771D02*
X127330476Y-115063390D01*
X127330476Y-115063390D02*
X127378095Y-115111009D01*
X127378095Y-115111009D02*
X127425714Y-115206247D01*
X127425714Y-115206247D02*
X127425714Y-115444342D01*
X127425714Y-115444342D02*
X127378095Y-115539580D01*
X127378095Y-115539580D02*
X127330476Y-115587200D01*
X127330476Y-115587200D02*
X127235238Y-115634819D01*
X127235238Y-115634819D02*
X126949524Y-115634819D01*
X126949524Y-115634819D02*
X126854286Y-115587200D01*
X126854286Y-115587200D02*
X126806667Y-115539580D01*
X132285714Y-116784819D02*
X131714286Y-116784819D01*
X132000000Y-116784819D02*
X132000000Y-115784819D01*
X132000000Y-115784819D02*
X131904762Y-115927676D01*
X131904762Y-115927676D02*
X131809524Y-116022914D01*
X131809524Y-116022914D02*
X131714286Y-116070533D01*
X132714286Y-116784819D02*
X132714286Y-115784819D01*
X133285714Y-116784819D02*
X132857143Y-116213390D01*
X133285714Y-115784819D02*
X132714286Y-116356247D01*
X135634819Y-96817333D02*
X136349104Y-96817333D01*
X136349104Y-96817333D02*
X136491961Y-96864952D01*
X136491961Y-96864952D02*
X136587200Y-96960190D01*
X136587200Y-96960190D02*
X136634819Y-97103047D01*
X136634819Y-97103047D02*
X136634819Y-97198285D01*
X135634819Y-96436380D02*
X135634819Y-95817333D01*
X135634819Y-95817333D02*
X136015771Y-96150666D01*
X136015771Y-96150666D02*
X136015771Y-96007809D01*
X136015771Y-96007809D02*
X136063390Y-95912571D01*
X136063390Y-95912571D02*
X136111009Y-95864952D01*
X136111009Y-95864952D02*
X136206247Y-95817333D01*
X136206247Y-95817333D02*
X136444342Y-95817333D01*
X136444342Y-95817333D02*
X136539580Y-95864952D01*
X136539580Y-95864952D02*
X136587200Y-95912571D01*
X136587200Y-95912571D02*
X136634819Y-96007809D01*
X136634819Y-96007809D02*
X136634819Y-96293523D01*
X136634819Y-96293523D02*
X136587200Y-96388761D01*
X136587200Y-96388761D02*
X136539580Y-96436380D01*
X143534819Y-95120952D02*
X143058628Y-95454285D01*
X143534819Y-95692380D02*
X142534819Y-95692380D01*
X142534819Y-95692380D02*
X142534819Y-95311428D01*
X142534819Y-95311428D02*
X142582438Y-95216190D01*
X142582438Y-95216190D02*
X142630057Y-95168571D01*
X142630057Y-95168571D02*
X142725295Y-95120952D01*
X142725295Y-95120952D02*
X142868152Y-95120952D01*
X142868152Y-95120952D02*
X142963390Y-95168571D01*
X142963390Y-95168571D02*
X143011009Y-95216190D01*
X143011009Y-95216190D02*
X143058628Y-95311428D01*
X143058628Y-95311428D02*
X143058628Y-95692380D01*
X143487200Y-94311428D02*
X143534819Y-94406666D01*
X143534819Y-94406666D02*
X143534819Y-94597142D01*
X143534819Y-94597142D02*
X143487200Y-94692380D01*
X143487200Y-94692380D02*
X143391961Y-94739999D01*
X143391961Y-94739999D02*
X143011009Y-94739999D01*
X143011009Y-94739999D02*
X142915771Y-94692380D01*
X142915771Y-94692380D02*
X142868152Y-94597142D01*
X142868152Y-94597142D02*
X142868152Y-94406666D01*
X142868152Y-94406666D02*
X142915771Y-94311428D01*
X142915771Y-94311428D02*
X143011009Y-94263809D01*
X143011009Y-94263809D02*
X143106247Y-94263809D01*
X143106247Y-94263809D02*
X143201485Y-94739999D01*
X143534819Y-93406666D02*
X143011009Y-93406666D01*
X143011009Y-93406666D02*
X142915771Y-93454285D01*
X142915771Y-93454285D02*
X142868152Y-93549523D01*
X142868152Y-93549523D02*
X142868152Y-93739999D01*
X142868152Y-93739999D02*
X142915771Y-93835237D01*
X143487200Y-93406666D02*
X143534819Y-93501904D01*
X143534819Y-93501904D02*
X143534819Y-93739999D01*
X143534819Y-93739999D02*
X143487200Y-93835237D01*
X143487200Y-93835237D02*
X143391961Y-93882856D01*
X143391961Y-93882856D02*
X143296723Y-93882856D01*
X143296723Y-93882856D02*
X143201485Y-93835237D01*
X143201485Y-93835237D02*
X143153866Y-93739999D01*
X143153866Y-93739999D02*
X143153866Y-93501904D01*
X143153866Y-93501904D02*
X143106247Y-93406666D01*
X143534819Y-92930475D02*
X142868152Y-92930475D01*
X143058628Y-92930475D02*
X142963390Y-92882856D01*
X142963390Y-92882856D02*
X142915771Y-92835237D01*
X142915771Y-92835237D02*
X142868152Y-92739999D01*
X142868152Y-92739999D02*
X142868152Y-92644761D01*
X135594819Y-87949333D02*
X136309104Y-87949333D01*
X136309104Y-87949333D02*
X136451961Y-87996952D01*
X136451961Y-87996952D02*
X136547200Y-88092190D01*
X136547200Y-88092190D02*
X136594819Y-88235047D01*
X136594819Y-88235047D02*
X136594819Y-88330285D01*
X135594819Y-86996952D02*
X135594819Y-87473142D01*
X135594819Y-87473142D02*
X136071009Y-87520761D01*
X136071009Y-87520761D02*
X136023390Y-87473142D01*
X136023390Y-87473142D02*
X135975771Y-87377904D01*
X135975771Y-87377904D02*
X135975771Y-87139809D01*
X135975771Y-87139809D02*
X136023390Y-87044571D01*
X136023390Y-87044571D02*
X136071009Y-86996952D01*
X136071009Y-86996952D02*
X136166247Y-86949333D01*
X136166247Y-86949333D02*
X136404342Y-86949333D01*
X136404342Y-86949333D02*
X136499580Y-86996952D01*
X136499580Y-86996952D02*
X136547200Y-87044571D01*
X136547200Y-87044571D02*
X136594819Y-87139809D01*
X136594819Y-87139809D02*
X136594819Y-87377904D01*
X136594819Y-87377904D02*
X136547200Y-87473142D01*
X136547200Y-87473142D02*
X136499580Y-87520761D01*
X143494819Y-87840476D02*
X143494819Y-88316666D01*
X143494819Y-88316666D02*
X142494819Y-88316666D01*
X143447200Y-87126190D02*
X143494819Y-87221428D01*
X143494819Y-87221428D02*
X143494819Y-87411904D01*
X143494819Y-87411904D02*
X143447200Y-87507142D01*
X143447200Y-87507142D02*
X143351961Y-87554761D01*
X143351961Y-87554761D02*
X142971009Y-87554761D01*
X142971009Y-87554761D02*
X142875771Y-87507142D01*
X142875771Y-87507142D02*
X142828152Y-87411904D01*
X142828152Y-87411904D02*
X142828152Y-87221428D01*
X142828152Y-87221428D02*
X142875771Y-87126190D01*
X142875771Y-87126190D02*
X142971009Y-87078571D01*
X142971009Y-87078571D02*
X143066247Y-87078571D01*
X143066247Y-87078571D02*
X143161485Y-87554761D01*
X142828152Y-86792856D02*
X142828152Y-86411904D01*
X143494819Y-86649999D02*
X142637676Y-86649999D01*
X142637676Y-86649999D02*
X142542438Y-86602380D01*
X142542438Y-86602380D02*
X142494819Y-86507142D01*
X142494819Y-86507142D02*
X142494819Y-86411904D01*
X142828152Y-86221427D02*
X142828152Y-85840475D01*
X142494819Y-86078570D02*
X143351961Y-86078570D01*
X143351961Y-86078570D02*
X143447200Y-86030951D01*
X143447200Y-86030951D02*
X143494819Y-85935713D01*
X143494819Y-85935713D02*
X143494819Y-85840475D01*
X148873333Y-79604819D02*
X148540000Y-79128628D01*
X148301905Y-79604819D02*
X148301905Y-78604819D01*
X148301905Y-78604819D02*
X148682857Y-78604819D01*
X148682857Y-78604819D02*
X148778095Y-78652438D01*
X148778095Y-78652438D02*
X148825714Y-78700057D01*
X148825714Y-78700057D02*
X148873333Y-78795295D01*
X148873333Y-78795295D02*
X148873333Y-78938152D01*
X148873333Y-78938152D02*
X148825714Y-79033390D01*
X148825714Y-79033390D02*
X148778095Y-79081009D01*
X148778095Y-79081009D02*
X148682857Y-79128628D01*
X148682857Y-79128628D02*
X148301905Y-79128628D01*
X149444762Y-79033390D02*
X149349524Y-78985771D01*
X149349524Y-78985771D02*
X149301905Y-78938152D01*
X149301905Y-78938152D02*
X149254286Y-78842914D01*
X149254286Y-78842914D02*
X149254286Y-78795295D01*
X149254286Y-78795295D02*
X149301905Y-78700057D01*
X149301905Y-78700057D02*
X149349524Y-78652438D01*
X149349524Y-78652438D02*
X149444762Y-78604819D01*
X149444762Y-78604819D02*
X149635238Y-78604819D01*
X149635238Y-78604819D02*
X149730476Y-78652438D01*
X149730476Y-78652438D02*
X149778095Y-78700057D01*
X149778095Y-78700057D02*
X149825714Y-78795295D01*
X149825714Y-78795295D02*
X149825714Y-78842914D01*
X149825714Y-78842914D02*
X149778095Y-78938152D01*
X149778095Y-78938152D02*
X149730476Y-78985771D01*
X149730476Y-78985771D02*
X149635238Y-79033390D01*
X149635238Y-79033390D02*
X149444762Y-79033390D01*
X149444762Y-79033390D02*
X149349524Y-79081009D01*
X149349524Y-79081009D02*
X149301905Y-79128628D01*
X149301905Y-79128628D02*
X149254286Y-79223866D01*
X149254286Y-79223866D02*
X149254286Y-79414342D01*
X149254286Y-79414342D02*
X149301905Y-79509580D01*
X149301905Y-79509580D02*
X149349524Y-79557200D01*
X149349524Y-79557200D02*
X149444762Y-79604819D01*
X149444762Y-79604819D02*
X149635238Y-79604819D01*
X149635238Y-79604819D02*
X149730476Y-79557200D01*
X149730476Y-79557200D02*
X149778095Y-79509580D01*
X149778095Y-79509580D02*
X149825714Y-79414342D01*
X149825714Y-79414342D02*
X149825714Y-79223866D01*
X149825714Y-79223866D02*
X149778095Y-79128628D01*
X149778095Y-79128628D02*
X149730476Y-79081009D01*
X149730476Y-79081009D02*
X149635238Y-79033390D01*
X148349523Y-81498819D02*
X147778095Y-81498819D01*
X148063809Y-81498819D02*
X148063809Y-80498819D01*
X148063809Y-80498819D02*
X147968571Y-80641676D01*
X147968571Y-80641676D02*
X147873333Y-80736914D01*
X147873333Y-80736914D02*
X147778095Y-80784533D01*
X148968571Y-80498819D02*
X149063809Y-80498819D01*
X149063809Y-80498819D02*
X149159047Y-80546438D01*
X149159047Y-80546438D02*
X149206666Y-80594057D01*
X149206666Y-80594057D02*
X149254285Y-80689295D01*
X149254285Y-80689295D02*
X149301904Y-80879771D01*
X149301904Y-80879771D02*
X149301904Y-81117866D01*
X149301904Y-81117866D02*
X149254285Y-81308342D01*
X149254285Y-81308342D02*
X149206666Y-81403580D01*
X149206666Y-81403580D02*
X149159047Y-81451200D01*
X149159047Y-81451200D02*
X149063809Y-81498819D01*
X149063809Y-81498819D02*
X148968571Y-81498819D01*
X148968571Y-81498819D02*
X148873333Y-81451200D01*
X148873333Y-81451200D02*
X148825714Y-81403580D01*
X148825714Y-81403580D02*
X148778095Y-81308342D01*
X148778095Y-81308342D02*
X148730476Y-81117866D01*
X148730476Y-81117866D02*
X148730476Y-80879771D01*
X148730476Y-80879771D02*
X148778095Y-80689295D01*
X148778095Y-80689295D02*
X148825714Y-80594057D01*
X148825714Y-80594057D02*
X148873333Y-80546438D01*
X148873333Y-80546438D02*
X148968571Y-80498819D01*
X149730476Y-81498819D02*
X149730476Y-80498819D01*
X150301904Y-81498819D02*
X149873333Y-80927390D01*
X150301904Y-80498819D02*
X149730476Y-81070247D01*
D11*
%TO.C,J1*%
X142030000Y-98240000D02*
X137310000Y-98240000D01*
X139920000Y-98240000D02*
X139920000Y-98850000D01*
X138620000Y-98240000D02*
X138620000Y-98850000D01*
X137310000Y-98240000D02*
X137310000Y-104360000D01*
X141420000Y-98850000D02*
X137920000Y-98850000D01*
X137920000Y-98850000D02*
X137920000Y-100800000D01*
X137920000Y-100800000D02*
X137310000Y-100800000D01*
X140920000Y-101200000D02*
X141420000Y-101200000D01*
X141420000Y-101300000D02*
X140920000Y-101300000D01*
X141420000Y-101400000D02*
X140920000Y-101400000D01*
X140920000Y-101400000D02*
X140920000Y-101200000D01*
X137920000Y-101800000D02*
X137920000Y-103750000D01*
X137310000Y-101800000D02*
X137920000Y-101800000D01*
X137310000Y-102600000D02*
X137110000Y-102600000D01*
X137210000Y-102600000D02*
X137210000Y-102900000D01*
X137110000Y-102600000D02*
X137110000Y-102900000D01*
X137110000Y-102900000D02*
X137310000Y-102900000D01*
X137010000Y-103410000D02*
X137010000Y-104660000D01*
X141420000Y-103750000D02*
X141420000Y-98850000D01*
X137920000Y-103750000D02*
X141420000Y-103750000D01*
X142030000Y-104360000D02*
X142030000Y-98240000D01*
X139920000Y-104360000D02*
X139920000Y-103750000D01*
X138620000Y-104360000D02*
X138620000Y-103750000D01*
X137310000Y-104360000D02*
X142030000Y-104360000D01*
X137010000Y-104660000D02*
X138260000Y-104660000D01*
%TO.C,J11*%
X146740000Y-122970000D02*
X146740000Y-112810000D01*
X139120000Y-112810000D02*
X139120000Y-122970000D01*
X140390000Y-122970000D02*
X140390000Y-112810000D01*
X139120000Y-122970000D02*
X146740000Y-122970000D01*
X146740000Y-112810000D02*
X139120000Y-112810000D01*
%TO.C,J17*%
X147120000Y-112000000D02*
X148370000Y-112000000D01*
X147420000Y-111700000D02*
X152140000Y-111700000D01*
X148730000Y-111700000D02*
X148730000Y-111090000D01*
X150030000Y-111700000D02*
X150030000Y-111090000D01*
X152140000Y-111700000D02*
X152140000Y-105580000D01*
X148030000Y-111090000D02*
X151530000Y-111090000D01*
X151530000Y-111090000D02*
X151530000Y-106190000D01*
X147120000Y-110750000D02*
X147120000Y-112000000D01*
X147220000Y-110240000D02*
X147420000Y-110240000D01*
X147220000Y-109940000D02*
X147220000Y-110240000D01*
X147320000Y-109940000D02*
X147320000Y-110240000D01*
X147420000Y-109940000D02*
X147220000Y-109940000D01*
X147420000Y-109140000D02*
X148030000Y-109140000D01*
X148030000Y-109140000D02*
X148030000Y-111090000D01*
X151030000Y-108740000D02*
X151030000Y-108540000D01*
X151530000Y-108740000D02*
X151030000Y-108740000D01*
X151530000Y-108640000D02*
X151030000Y-108640000D01*
X151030000Y-108540000D02*
X151530000Y-108540000D01*
X148030000Y-108140000D02*
X147420000Y-108140000D01*
X148030000Y-106190000D02*
X148030000Y-108140000D01*
X151530000Y-106190000D02*
X148030000Y-106190000D01*
X147420000Y-105580000D02*
X147420000Y-111700000D01*
X148730000Y-105580000D02*
X148730000Y-106190000D01*
X150030000Y-105580000D02*
X150030000Y-106190000D01*
X152140000Y-105580000D02*
X147420000Y-105580000D01*
%TO.C,Q1*%
X144590000Y-126810000D02*
G75*
G03*
X140151522Y-124971522I-2600000J0D01*
G01*
X140151522Y-128648478D02*
G75*
G03*
X144590000Y-126810000I1838478J1838478D01*
G01*
X140140000Y-125010000D02*
X140140000Y-128610000D01*
%TO.C,R5*%
X146280000Y-103140000D02*
X147230000Y-103140000D01*
X147230000Y-102220000D02*
X147230000Y-104060000D01*
X147230000Y-104060000D02*
X151070000Y-104060000D01*
X151070000Y-102220000D02*
X147230000Y-102220000D01*
X151070000Y-104060000D02*
X151070000Y-102220000D01*
X152020000Y-103140000D02*
X151070000Y-103140000D01*
%TO.C,R1*%
X126740000Y-121820000D02*
X127690000Y-121820000D01*
X127690000Y-120900000D02*
X127690000Y-122740000D01*
X127690000Y-122740000D02*
X131530000Y-122740000D01*
X131530000Y-120900000D02*
X127690000Y-120900000D01*
X131530000Y-122740000D02*
X131530000Y-120900000D01*
X132480000Y-121820000D02*
X131530000Y-121820000D01*
%TO.C,J9*%
X127100000Y-129870000D02*
X131820000Y-129870000D01*
X129210000Y-129870000D02*
X129210000Y-129260000D01*
X130510000Y-129870000D02*
X130510000Y-129260000D01*
X131820000Y-129870000D02*
X131820000Y-123750000D01*
X127710000Y-129260000D02*
X131210000Y-129260000D01*
X131210000Y-129260000D02*
X131210000Y-127310000D01*
X131210000Y-127310000D02*
X131820000Y-127310000D01*
X128210000Y-126910000D02*
X127710000Y-126910000D01*
X127710000Y-126810000D02*
X128210000Y-126810000D01*
X127710000Y-126710000D02*
X128210000Y-126710000D01*
X128210000Y-126710000D02*
X128210000Y-126910000D01*
X131210000Y-126310000D02*
X131210000Y-124360000D01*
X131820000Y-126310000D02*
X131210000Y-126310000D01*
X131820000Y-125510000D02*
X132020000Y-125510000D01*
X131920000Y-125510000D02*
X131920000Y-125210000D01*
X132020000Y-125510000D02*
X132020000Y-125210000D01*
X132020000Y-125210000D02*
X131820000Y-125210000D01*
X132120000Y-124700000D02*
X132120000Y-123450000D01*
X127710000Y-124360000D02*
X127710000Y-129260000D01*
X131210000Y-124360000D02*
X127710000Y-124360000D01*
X127100000Y-123750000D02*
X127100000Y-129870000D01*
X129210000Y-123750000D02*
X129210000Y-124360000D01*
X130510000Y-123750000D02*
X130510000Y-124360000D01*
X131820000Y-123750000D02*
X127100000Y-123750000D01*
X132120000Y-123450000D02*
X130870000Y-123450000D01*
%TO.C,J13*%
X137490000Y-111640000D02*
X142210000Y-111640000D01*
X139600000Y-111640000D02*
X139600000Y-111030000D01*
X140900000Y-111640000D02*
X140900000Y-111030000D01*
X142210000Y-111640000D02*
X142210000Y-105520000D01*
X138100000Y-111030000D02*
X141600000Y-111030000D01*
X141600000Y-111030000D02*
X141600000Y-109080000D01*
X141600000Y-109080000D02*
X142210000Y-109080000D01*
X138600000Y-108680000D02*
X138100000Y-108680000D01*
X138100000Y-108580000D02*
X138600000Y-108580000D01*
X138100000Y-108480000D02*
X138600000Y-108480000D01*
X138600000Y-108480000D02*
X138600000Y-108680000D01*
X141600000Y-108080000D02*
X141600000Y-106130000D01*
X142210000Y-108080000D02*
X141600000Y-108080000D01*
X142210000Y-107280000D02*
X142410000Y-107280000D01*
X142310000Y-107280000D02*
X142310000Y-106980000D01*
X142410000Y-107280000D02*
X142410000Y-106980000D01*
X142410000Y-106980000D02*
X142210000Y-106980000D01*
X142510000Y-106470000D02*
X142510000Y-105220000D01*
X138100000Y-106130000D02*
X138100000Y-111030000D01*
X141600000Y-106130000D02*
X138100000Y-106130000D01*
X137490000Y-105520000D02*
X137490000Y-111640000D01*
X139600000Y-105520000D02*
X139600000Y-106130000D01*
X140900000Y-105520000D02*
X140900000Y-106130000D01*
X142210000Y-105520000D02*
X137490000Y-105520000D01*
X142510000Y-105220000D02*
X141260000Y-105220000D01*
%TO.C,J15*%
X132610000Y-97080000D02*
X131360000Y-97080000D01*
X132310000Y-97380000D02*
X127590000Y-97380000D01*
X131000000Y-97380000D02*
X131000000Y-97990000D01*
X129700000Y-97380000D02*
X129700000Y-97990000D01*
X127590000Y-97380000D02*
X127590000Y-111500000D01*
X131700000Y-97990000D02*
X128200000Y-97990000D01*
X128200000Y-97990000D02*
X128200000Y-110890000D01*
X132610000Y-98330000D02*
X132610000Y-97080000D01*
X132510000Y-98840000D02*
X132310000Y-98840000D01*
X132510000Y-99140000D02*
X132510000Y-98840000D01*
X132410000Y-99140000D02*
X132410000Y-98840000D01*
X132310000Y-99140000D02*
X132510000Y-99140000D01*
X132310000Y-99940000D02*
X131700000Y-99940000D01*
X131700000Y-99940000D02*
X131700000Y-97990000D01*
X128700000Y-100340000D02*
X128700000Y-100540000D01*
X128200000Y-100340000D02*
X128700000Y-100340000D01*
X128200000Y-100440000D02*
X128700000Y-100440000D01*
X128700000Y-100540000D02*
X128200000Y-100540000D01*
X128700000Y-102340000D02*
X128700000Y-102540000D01*
X128200000Y-102340000D02*
X128700000Y-102340000D01*
X128200000Y-102440000D02*
X128700000Y-102440000D01*
X128700000Y-102540000D02*
X128200000Y-102540000D01*
X128700000Y-104340000D02*
X128700000Y-104540000D01*
X128200000Y-104340000D02*
X128700000Y-104340000D01*
X128200000Y-104440000D02*
X128700000Y-104440000D01*
X128700000Y-104540000D02*
X128200000Y-104540000D01*
X128700000Y-106340000D02*
X128700000Y-106540000D01*
X128200000Y-106340000D02*
X128700000Y-106340000D01*
X128200000Y-106440000D02*
X128700000Y-106440000D01*
X128700000Y-106540000D02*
X128200000Y-106540000D01*
X128700000Y-108340000D02*
X128700000Y-108540000D01*
X128200000Y-108340000D02*
X128700000Y-108340000D01*
X128200000Y-108440000D02*
X128700000Y-108440000D01*
X128700000Y-108540000D02*
X128200000Y-108540000D01*
X131700000Y-108940000D02*
X132310000Y-108940000D01*
X131700000Y-110890000D02*
X131700000Y-108940000D01*
X128200000Y-110890000D02*
X131700000Y-110890000D01*
X132310000Y-111500000D02*
X132310000Y-97380000D01*
X131000000Y-111500000D02*
X131000000Y-110890000D01*
X129700000Y-111500000D02*
X129700000Y-110890000D01*
X127590000Y-111500000D02*
X132310000Y-111500000D01*
%TO.C,J16*%
X127560000Y-96110000D02*
X132280000Y-96110000D01*
X129670000Y-96110000D02*
X129670000Y-95500000D01*
X130970000Y-96110000D02*
X130970000Y-95500000D01*
X132280000Y-96110000D02*
X132280000Y-87990000D01*
X128170000Y-95500000D02*
X131670000Y-95500000D01*
X131670000Y-95500000D02*
X131670000Y-93550000D01*
X131670000Y-93550000D02*
X132280000Y-93550000D01*
X128670000Y-93150000D02*
X128170000Y-93150000D01*
X128170000Y-93050000D02*
X128670000Y-93050000D01*
X128170000Y-92950000D02*
X128670000Y-92950000D01*
X128670000Y-92950000D02*
X128670000Y-93150000D01*
X128670000Y-91150000D02*
X128170000Y-91150000D01*
X128170000Y-91050000D02*
X128670000Y-91050000D01*
X128170000Y-90950000D02*
X128670000Y-90950000D01*
X128670000Y-90950000D02*
X128670000Y-91150000D01*
X131670000Y-90550000D02*
X131670000Y-88600000D01*
X132280000Y-90550000D02*
X131670000Y-90550000D01*
X132280000Y-89750000D02*
X132480000Y-89750000D01*
X132380000Y-89750000D02*
X132380000Y-89450000D01*
X132480000Y-89750000D02*
X132480000Y-89450000D01*
X132480000Y-89450000D02*
X132280000Y-89450000D01*
X132580000Y-88940000D02*
X132580000Y-87690000D01*
X128170000Y-88600000D02*
X128170000Y-95500000D01*
X131670000Y-88600000D02*
X128170000Y-88600000D01*
X127560000Y-87990000D02*
X127560000Y-96110000D01*
X129670000Y-87990000D02*
X129670000Y-88600000D01*
X130970000Y-87990000D02*
X130970000Y-88600000D01*
X132280000Y-87990000D02*
X127560000Y-87990000D01*
X132580000Y-87690000D02*
X131330000Y-87690000D01*
%TO.C,R4*%
X135540000Y-113480000D02*
X134590000Y-113480000D01*
X134590000Y-114400000D02*
X134590000Y-112560000D01*
X134590000Y-112560000D02*
X130750000Y-112560000D01*
X130750000Y-114400000D02*
X134590000Y-114400000D01*
X130750000Y-112560000D02*
X130750000Y-114400000D01*
X129800000Y-113480000D02*
X130750000Y-113480000D01*
%TO.C,R9*%
X149960000Y-117000000D02*
X150910000Y-117000000D01*
X150910000Y-116080000D02*
X150910000Y-117920000D01*
X150910000Y-117920000D02*
X154750000Y-117920000D01*
X154750000Y-116080000D02*
X150910000Y-116080000D01*
X154750000Y-117920000D02*
X154750000Y-116080000D01*
X155700000Y-117000000D02*
X154750000Y-117000000D01*
%TO.C,LS1*%
X158800000Y-126510000D02*
G75*
G03*
X146600000Y-126510000I-6100000J0D01*
G01*
X146600000Y-126510000D02*
G75*
G03*
X158800000Y-126510000I6100000J0D01*
G01*
%TO.C,R2*%
X136000000Y-126680000D02*
X136000000Y-125730000D01*
X135080000Y-125730000D02*
X136920000Y-125730000D01*
X136920000Y-125730000D02*
X136920000Y-121890000D01*
X135080000Y-121890000D02*
X135080000Y-125730000D01*
X136920000Y-121890000D02*
X135080000Y-121890000D01*
X136000000Y-120940000D02*
X136000000Y-121890000D01*
%TO.C,R6*%
X151990000Y-95200000D02*
X151040000Y-95200000D01*
X151040000Y-96120000D02*
X151040000Y-94280000D01*
X151040000Y-94280000D02*
X147200000Y-94280000D01*
X147200000Y-96120000D02*
X151040000Y-96120000D01*
X147200000Y-94280000D02*
X147200000Y-96120000D01*
X146250000Y-95200000D02*
X147200000Y-95200000D01*
%TO.C,J7*%
X136930000Y-83330000D02*
X138180000Y-83330000D01*
X137230000Y-83030000D02*
X141950000Y-83030000D01*
X138540000Y-83030000D02*
X138540000Y-82420000D01*
X139840000Y-83030000D02*
X139840000Y-82420000D01*
X141950000Y-83030000D02*
X141950000Y-76910000D01*
X137840000Y-82420000D02*
X141340000Y-82420000D01*
X141340000Y-82420000D02*
X141340000Y-77520000D01*
X136930000Y-82080000D02*
X136930000Y-83330000D01*
X137030000Y-81570000D02*
X137230000Y-81570000D01*
X137030000Y-81270000D02*
X137030000Y-81570000D01*
X137130000Y-81270000D02*
X137130000Y-81570000D01*
X137230000Y-81270000D02*
X137030000Y-81270000D01*
X137230000Y-80470000D02*
X137840000Y-80470000D01*
X137840000Y-80470000D02*
X137840000Y-82420000D01*
X140840000Y-80070000D02*
X140840000Y-79870000D01*
X141340000Y-80070000D02*
X140840000Y-80070000D01*
X141340000Y-79970000D02*
X140840000Y-79970000D01*
X140840000Y-79870000D02*
X141340000Y-79870000D01*
X137840000Y-79470000D02*
X137230000Y-79470000D01*
X137840000Y-77520000D02*
X137840000Y-79470000D01*
X141340000Y-77520000D02*
X137840000Y-77520000D01*
X137230000Y-76910000D02*
X137230000Y-83030000D01*
X138540000Y-76910000D02*
X138540000Y-77520000D01*
X139840000Y-76910000D02*
X139840000Y-77520000D01*
X141950000Y-76910000D02*
X137230000Y-76910000D01*
%TO.C,A1*%
X124170000Y-128060000D02*
X124170000Y-125390000D01*
X124170000Y-122850000D02*
X124170000Y-84620000D01*
X124170000Y-84620000D02*
X119090000Y-84620000D01*
X121500000Y-125390000D02*
X124170000Y-125390000D01*
X121500000Y-122850000D02*
X124170000Y-122850000D01*
X121500000Y-122850000D02*
X121500000Y-125390000D01*
X121500000Y-122850000D02*
X121500000Y-87290000D01*
X121500000Y-87290000D02*
X124170000Y-87290000D01*
X119090000Y-92500000D02*
X111210000Y-92500000D01*
X119090000Y-82080000D02*
X119090000Y-92500000D01*
X111210000Y-92500000D02*
X111210000Y-82080000D01*
X111210000Y-82080000D02*
X119090000Y-82080000D01*
X108800000Y-125390000D02*
X108800000Y-87290000D01*
X108800000Y-125390000D02*
X106130000Y-125390000D01*
X108800000Y-87290000D02*
X106130000Y-87290000D01*
X106130000Y-128060000D02*
X124170000Y-128060000D01*
X106130000Y-84620000D02*
X111210000Y-84620000D01*
X106130000Y-84620000D02*
X106130000Y-128060000D01*
%TO.C,R7*%
X151970000Y-88200000D02*
X151020000Y-88200000D01*
X151020000Y-89120000D02*
X151020000Y-87280000D01*
X151020000Y-87280000D02*
X147180000Y-87280000D01*
X147180000Y-89120000D02*
X151020000Y-89120000D01*
X147180000Y-87280000D02*
X147180000Y-89120000D01*
X146230000Y-88200000D02*
X147180000Y-88200000D01*
%TO.C,R3*%
X129630000Y-116330000D02*
X130580000Y-116330000D01*
X130580000Y-115410000D02*
X130580000Y-117250000D01*
X130580000Y-117250000D02*
X134420000Y-117250000D01*
X134420000Y-115410000D02*
X130580000Y-115410000D01*
X134420000Y-117250000D02*
X134420000Y-115410000D01*
X135370000Y-116330000D02*
X134420000Y-116330000D01*
%TO.C,J3*%
X141990000Y-91180000D02*
X137270000Y-91180000D01*
X139880000Y-91180000D02*
X139880000Y-91790000D01*
X138580000Y-91180000D02*
X138580000Y-91790000D01*
X137270000Y-91180000D02*
X137270000Y-97300000D01*
X141380000Y-91790000D02*
X137880000Y-91790000D01*
X137880000Y-91790000D02*
X137880000Y-93740000D01*
X137880000Y-93740000D02*
X137270000Y-93740000D01*
X140880000Y-94140000D02*
X141380000Y-94140000D01*
X141380000Y-94240000D02*
X140880000Y-94240000D01*
X141380000Y-94340000D02*
X140880000Y-94340000D01*
X140880000Y-94340000D02*
X140880000Y-94140000D01*
X137880000Y-94740000D02*
X137880000Y-96690000D01*
X137270000Y-94740000D02*
X137880000Y-94740000D01*
X137270000Y-95540000D02*
X137070000Y-95540000D01*
X137170000Y-95540000D02*
X137170000Y-95840000D01*
X137070000Y-95540000D02*
X137070000Y-95840000D01*
X137070000Y-95840000D02*
X137270000Y-95840000D01*
X136970000Y-96350000D02*
X136970000Y-97600000D01*
X141380000Y-96690000D02*
X141380000Y-91790000D01*
X137880000Y-96690000D02*
X141380000Y-96690000D01*
X141990000Y-97300000D02*
X141990000Y-91180000D01*
X139880000Y-97300000D02*
X139880000Y-96690000D01*
X138580000Y-97300000D02*
X138580000Y-96690000D01*
X137270000Y-97300000D02*
X141990000Y-97300000D01*
X136970000Y-97600000D02*
X138220000Y-97600000D01*
%TO.C,J5*%
X141950000Y-84090000D02*
X137230000Y-84090000D01*
X139840000Y-84090000D02*
X139840000Y-84700000D01*
X138540000Y-84090000D02*
X138540000Y-84700000D01*
X137230000Y-84090000D02*
X137230000Y-90210000D01*
X141340000Y-84700000D02*
X137840000Y-84700000D01*
X137840000Y-84700000D02*
X137840000Y-86650000D01*
X137840000Y-86650000D02*
X137230000Y-86650000D01*
X140840000Y-87050000D02*
X141340000Y-87050000D01*
X141340000Y-87150000D02*
X140840000Y-87150000D01*
X141340000Y-87250000D02*
X140840000Y-87250000D01*
X140840000Y-87250000D02*
X140840000Y-87050000D01*
X137840000Y-87650000D02*
X137840000Y-89600000D01*
X137230000Y-87650000D02*
X137840000Y-87650000D01*
X137230000Y-88450000D02*
X137030000Y-88450000D01*
X137130000Y-88450000D02*
X137130000Y-88750000D01*
X137030000Y-88450000D02*
X137030000Y-88750000D01*
X137030000Y-88750000D02*
X137230000Y-88750000D01*
X136930000Y-89260000D02*
X136930000Y-90510000D01*
X141340000Y-89600000D02*
X141340000Y-84700000D01*
X137840000Y-89600000D02*
X141340000Y-89600000D01*
X141950000Y-90210000D02*
X141950000Y-84090000D01*
X139840000Y-90210000D02*
X139840000Y-89600000D01*
X138540000Y-90210000D02*
X138540000Y-89600000D01*
X137230000Y-90210000D02*
X141950000Y-90210000D01*
X136930000Y-90510000D02*
X138180000Y-90510000D01*
%TO.C,R8*%
X151910000Y-81070000D02*
X150960000Y-81070000D01*
X150960000Y-81990000D02*
X150960000Y-80150000D01*
X150960000Y-80150000D02*
X147120000Y-80150000D01*
X147120000Y-81990000D02*
X150960000Y-81990000D01*
X147120000Y-80150000D02*
X147120000Y-81990000D01*
X146170000Y-81070000D02*
X147120000Y-81070000D01*
%TD*%
M02*
