M48
; DRILL file {KiCad 7.0.10} date Fri Jun 28 17:48:32 2024
; FORMAT={-:-/ absolute / inch / decimal}
; #@! TF.CreationDate,2024-06-28T17:48:32-04:00
; #@! TF.GenerationSoftware,Kicad,Pcbnew,7.0.10
; #@! TF.FileFunction,Plated,1,2,PTH
FMAT,2
INCH
; #@! TA.AperFunction,Plated,PTH,ComponentDrill
T1C0.0276
; #@! TA.AperFunction,Plated,PTH,ComponentDrill
T2C0.0295
; #@! TA.AperFunction,Plated,PTH,ComponentDrill
T3C0.0394
; #@! TA.AperFunction,Plated,PTH,ComponentDrill
T4C0.0598
%
G90
G05
T1
X4.9528Y-4.7961
X5.0665Y-4.5799
X5.0732Y-4.4677
X5.2528Y-4.7961
X5.3543Y-4.7244
X5.3543Y-5.0244
X5.3665Y-4.5799
X5.3732Y-4.4677
X5.7177Y-3.1917
X5.7201Y-3.4724
X5.7209Y-3.748
X5.722Y-4.0606
X5.8669Y-4.6063
X6.0177Y-3.1917
X6.0201Y-3.4724
X6.0209Y-3.748
X6.022Y-4.0606
X6.1669Y-4.6063
T2
X5.1185Y-4.9531
X5.1185Y-5.0319
X5.1366Y-3.5453
X5.1366Y-3.624
X5.1366Y-3.7028
X5.1378Y-3.915
X5.1378Y-3.9937
X5.1378Y-4.0724
X5.1378Y-4.1512
X5.1378Y-4.2299
X5.1378Y-4.3087
X5.474Y-3.1091
X5.474Y-3.1878
X5.474Y-3.3917
X5.474Y-3.4705
X5.4756Y-3.6709
X5.4756Y-3.7496
X5.4772Y-3.9488
X5.4772Y-4.0276
X5.5276Y-4.2354
X5.5276Y-4.3142
X5.5902Y-4.9425
X5.5902Y-4.9925
X5.5902Y-5.0425
X5.8752Y-4.2378
X5.8752Y-4.3165
T3
X4.2335Y-3.4866
X4.2335Y-3.5866
X4.2335Y-3.6866
X4.2335Y-3.7866
X4.2335Y-3.8866
X4.2335Y-3.9866
X4.2335Y-4.0866
X4.2335Y-4.1866
X4.2335Y-4.2866
X4.2335Y-4.3866
X4.2335Y-4.4866
X4.2335Y-4.5866
X4.2335Y-4.6866
X4.2335Y-4.7866
X4.2335Y-4.8866
X4.8335Y-3.4866
X4.8335Y-3.5866
X4.8335Y-3.6866
X4.8335Y-3.7866
X4.8335Y-3.8866
X4.8335Y-3.9866
X4.8335Y-4.0866
X4.8335Y-4.1866
X4.8335Y-4.2866
X4.8335Y-4.3866
X4.8335Y-4.4866
X4.8335Y-4.5866
X4.8335Y-4.6866
X4.8335Y-4.7866
X4.8335Y-4.8866
X5.8622Y-4.9807
X6.1614Y-4.9807
T4
X5.6272Y-4.5413
X5.6272Y-4.7413
M30
