%TF.GenerationSoftware,KiCad,Pcbnew,7.0.10*%
%TF.CreationDate,2024-06-28T17:48:14-04:00*%
%TF.ProjectId,LaserTank,4c617365-7254-4616-9e6b-2e6b69636164,rev?*%
%TF.SameCoordinates,Original*%
%TF.FileFunction,Copper,L1,Top*%
%TF.FilePolarity,Positive*%
%FSLAX46Y46*%
G04 Gerber Fmt 4.6, Leading zero omitted, Abs format (unit mm)*
G04 Created by KiCad (PCBNEW 7.0.10) date 2024-06-28 17:48:14*
%MOMM*%
%LPD*%
G01*
G04 APERTURE LIST*
G04 Aperture macros list*
%AMRoundRect*
0 Rectangle with rounded corners*
0 $1 Rounding radius*
0 $2 $3 $4 $5 $6 $7 $8 $9 X,Y pos of 4 corners*
0 Add a 4 corners polygon primitive as box body*
4,1,4,$2,$3,$4,$5,$6,$7,$8,$9,$2,$3,0*
0 Add four circle primitives for the rounded corners*
1,1,$1+$1,$2,$3*
1,1,$1+$1,$4,$5*
1,1,$1+$1,$6,$7*
1,1,$1+$1,$8,$9*
0 Add four rect primitives between the rounded corners*
20,1,$1+$1,$2,$3,$4,$5,0*
20,1,$1+$1,$4,$5,$6,$7,0*
20,1,$1+$1,$6,$7,$8,$9,0*
20,1,$1+$1,$8,$9,$2,$3,0*%
G04 Aperture macros list end*
%TA.AperFunction,ComponentPad*%
%ADD10O,1.750000X1.200000*%
%TD*%
%TA.AperFunction,ComponentPad*%
%ADD11RoundRect,0.250000X0.625000X-0.350000X0.625000X0.350000X-0.625000X0.350000X-0.625000X-0.350000X0*%
%TD*%
%TA.AperFunction,ComponentPad*%
%ADD12C,3.000000*%
%TD*%
%TA.AperFunction,ComponentPad*%
%ADD13R,3.000000X3.000000*%
%TD*%
%TA.AperFunction,ComponentPad*%
%ADD14O,1.500000X1.050000*%
%TD*%
%TA.AperFunction,ComponentPad*%
%ADD15R,1.500000X1.050000*%
%TD*%
%TA.AperFunction,ComponentPad*%
%ADD16C,1.400000*%
%TD*%
%TA.AperFunction,ComponentPad*%
%ADD17O,1.400000X1.400000*%
%TD*%
%TA.AperFunction,ComponentPad*%
%ADD18RoundRect,0.250000X-0.625000X0.350000X-0.625000X-0.350000X0.625000X-0.350000X0.625000X0.350000X0*%
%TD*%
%TA.AperFunction,ComponentPad*%
%ADD19R,2.000000X2.000000*%
%TD*%
%TA.AperFunction,ComponentPad*%
%ADD20C,2.000000*%
%TD*%
%TA.AperFunction,ComponentPad*%
%ADD21R,1.600000X1.600000*%
%TD*%
%TA.AperFunction,ComponentPad*%
%ADD22O,1.600000X1.600000*%
%TD*%
%TA.AperFunction,Conductor*%
%ADD23C,0.250000*%
%TD*%
G04 APERTURE END LIST*
D10*
%TO.P,J1,2,Pin_2*%
%TO.N,Net-(A1-+5V)*%
X139120000Y-100300000D03*
D11*
%TO.P,J1,1,Pin_1*%
%TO.N,Net-(A1-A0)*%
X139120000Y-102300000D03*
%TD*%
D12*
%TO.P,J11,2,Pin_2*%
%TO.N,Net-(J11-Pin_2)*%
X142930000Y-120430000D03*
D13*
%TO.P,J11,1,Pin_1*%
%TO.N,GND*%
X142930000Y-115350000D03*
%TD*%
D11*
%TO.P,J17,1,Pin_1*%
%TO.N,GND*%
X149230000Y-109640000D03*
D10*
%TO.P,J17,2,Pin_2*%
%TO.N,Net-(A1-+5V)*%
X149230000Y-107640000D03*
%TD*%
D14*
%TO.P,Q1,3,C*%
%TO.N,Net-(Q1-C)*%
X141990000Y-128080000D03*
%TO.P,Q1,2,B*%
%TO.N,Net-(Q1-B)*%
X141990000Y-126810000D03*
D15*
%TO.P,Q1,1,E*%
%TO.N,Net-(J11-Pin_2)*%
X141990000Y-125540000D03*
%TD*%
D16*
%TO.P,R5,1*%
%TO.N,Net-(A1-A0)*%
X145340000Y-103140000D03*
D17*
%TO.P,R5,2*%
%TO.N,GND*%
X152960000Y-103140000D03*
%TD*%
D16*
%TO.P,R1,1*%
%TO.N,Net-(A1-D0{slash}RX)*%
X125800000Y-121820000D03*
D17*
%TO.P,R1,2*%
%TO.N,GND*%
X133420000Y-121820000D03*
%TD*%
D10*
%TO.P,J9,2,Pin_2*%
%TO.N,Net-(A1-+5V)*%
X130010000Y-127810000D03*
D18*
%TO.P,J9,1,Pin_1*%
%TO.N,Net-(A1-D0{slash}RX)*%
X130010000Y-125810000D03*
%TD*%
D10*
%TO.P,J13,2,Pin_2*%
%TO.N,Net-(J13-Pin_2)*%
X140400000Y-109580000D03*
D18*
%TO.P,J13,1,Pin_1*%
%TO.N,GND*%
X140400000Y-107580000D03*
%TD*%
%TO.P,J15,1,Pin_1*%
%TO.N,Net-(A1-D9)*%
X130500000Y-99440000D03*
D10*
%TO.P,J15,2,Pin_2*%
%TO.N,Net-(A1-D8)*%
X130500000Y-101440000D03*
%TO.P,J15,3,Pin_3*%
%TO.N,Net-(A1-D7)*%
X130500000Y-103440000D03*
%TO.P,J15,4,Pin_4*%
%TO.N,Net-(A1-D6)*%
X130500000Y-105440000D03*
%TO.P,J15,5,Pin_5*%
%TO.N,Net-(A1-D5)*%
X130500000Y-107440000D03*
%TO.P,J15,6,Pin_6*%
%TO.N,Net-(A1-D4)*%
X130500000Y-109440000D03*
%TD*%
%TO.P,J16,3,Pin_3*%
%TO.N,Net-(A1-D13)*%
X130470000Y-94050000D03*
%TO.P,J16,2,Pin_2*%
%TO.N,Net-(A1-D11)*%
X130470000Y-92050000D03*
D18*
%TO.P,J16,1,Pin_1*%
%TO.N,Net-(A1-D12)*%
X130470000Y-90050000D03*
%TD*%
D17*
%TO.P,R4,2*%
%TO.N,Net-(J13-Pin_2)*%
X136480000Y-113480000D03*
D16*
%TO.P,R4,1*%
%TO.N,Net-(A1-D3)*%
X128860000Y-113480000D03*
%TD*%
D17*
%TO.P,R9,2*%
%TO.N,Net-(Q1-C)*%
X149020000Y-117000000D03*
D16*
%TO.P,R9,1*%
%TO.N,Net-(A1-+5V)*%
X156640000Y-117000000D03*
%TD*%
D19*
%TO.P,LS1,1,1*%
%TO.N,Net-(LS1-Pad1)*%
X148900000Y-126510000D03*
D20*
%TO.P,LS1,2,2*%
%TO.N,GND*%
X156500000Y-126510000D03*
%TD*%
D17*
%TO.P,R2,2*%
%TO.N,Net-(LS1-Pad1)*%
X136000000Y-127620000D03*
D16*
%TO.P,R2,1*%
%TO.N,Net-(A1-D10)*%
X136000000Y-120000000D03*
%TD*%
D17*
%TO.P,R6,2*%
%TO.N,GND*%
X152930000Y-95200000D03*
D16*
%TO.P,R6,1*%
%TO.N,Net-(A1-A1)*%
X145310000Y-95200000D03*
%TD*%
D11*
%TO.P,J7,1,Pin_1*%
%TO.N,Net-(A1-A3)*%
X139040000Y-80970000D03*
D10*
%TO.P,J7,2,Pin_2*%
%TO.N,Net-(A1-+5V)*%
X139040000Y-78970000D03*
%TD*%
D21*
%TO.P,A1,1,D1/TX*%
%TO.N,unconnected-(A1-D1{slash}TX-Pad1)*%
X122770000Y-124120000D03*
D22*
%TO.P,A1,2,D0/RX*%
%TO.N,Net-(A1-D0{slash}RX)*%
X122770000Y-121580000D03*
%TO.P,A1,3,~{RESET}*%
%TO.N,unconnected-(A1-~{RESET}-Pad3)*%
X122770000Y-119040000D03*
%TO.P,A1,4,GND*%
%TO.N,GND*%
X122770000Y-116500000D03*
%TO.P,A1,5,D2*%
%TO.N,Net-(A1-D2)*%
X122770000Y-113960000D03*
%TO.P,A1,6,D3*%
%TO.N,Net-(A1-D3)*%
X122770000Y-111420000D03*
%TO.P,A1,7,D4*%
%TO.N,Net-(A1-D4)*%
X122770000Y-108880000D03*
%TO.P,A1,8,D5*%
%TO.N,Net-(A1-D5)*%
X122770000Y-106340000D03*
%TO.P,A1,9,D6*%
%TO.N,Net-(A1-D6)*%
X122770000Y-103800000D03*
%TO.P,A1,10,D7*%
%TO.N,Net-(A1-D7)*%
X122770000Y-101260000D03*
%TO.P,A1,11,D8*%
%TO.N,Net-(A1-D8)*%
X122770000Y-98720000D03*
%TO.P,A1,12,D9*%
%TO.N,Net-(A1-D9)*%
X122770000Y-96180000D03*
%TO.P,A1,13,D10*%
%TO.N,Net-(A1-D10)*%
X122770000Y-93640000D03*
%TO.P,A1,14,D11*%
%TO.N,Net-(A1-D11)*%
X122770000Y-91100000D03*
%TO.P,A1,15,D12*%
%TO.N,Net-(A1-D12)*%
X122770000Y-88560000D03*
%TO.P,A1,16,D13*%
%TO.N,Net-(A1-D13)*%
X107530000Y-88560000D03*
%TO.P,A1,17,3V3*%
%TO.N,unconnected-(A1-3V3-Pad17)*%
X107530000Y-91100000D03*
%TO.P,A1,18,AREF*%
%TO.N,unconnected-(A1-AREF-Pad18)*%
X107530000Y-93640000D03*
%TO.P,A1,19,A0*%
%TO.N,Net-(A1-A0)*%
X107530000Y-96180000D03*
%TO.P,A1,20,A1*%
%TO.N,Net-(A1-A1)*%
X107530000Y-98720000D03*
%TO.P,A1,21,A2*%
%TO.N,Net-(A1-A2)*%
X107530000Y-101260000D03*
%TO.P,A1,22,A3*%
%TO.N,Net-(A1-A3)*%
X107530000Y-103800000D03*
%TO.P,A1,23,A4*%
%TO.N,unconnected-(A1-A4-Pad23)*%
X107530000Y-106340000D03*
%TO.P,A1,24,A5*%
%TO.N,unconnected-(A1-A5-Pad24)*%
X107530000Y-108880000D03*
%TO.P,A1,25,A6*%
%TO.N,unconnected-(A1-A6-Pad25)*%
X107530000Y-111420000D03*
%TO.P,A1,26,A7*%
%TO.N,unconnected-(A1-A7-Pad26)*%
X107530000Y-113960000D03*
%TO.P,A1,27,+5V*%
%TO.N,Net-(A1-+5V)*%
X107530000Y-116500000D03*
%TO.P,A1,28,~{RESET}*%
%TO.N,unconnected-(A1-~{RESET}-Pad28)*%
X107530000Y-119040000D03*
%TO.P,A1,29,GND*%
%TO.N,GND*%
X107530000Y-121580000D03*
%TO.P,A1,30,VIN*%
%TO.N,Net-(A1-+5V)*%
X107530000Y-124120000D03*
%TD*%
D17*
%TO.P,R7,2*%
%TO.N,GND*%
X152910000Y-88200000D03*
D16*
%TO.P,R7,1*%
%TO.N,Net-(A1-A2)*%
X145290000Y-88200000D03*
%TD*%
D17*
%TO.P,R3,2*%
%TO.N,Net-(A1-D2)*%
X128690000Y-116330000D03*
D16*
%TO.P,R3,1*%
%TO.N,Net-(Q1-B)*%
X136310000Y-116330000D03*
%TD*%
D10*
%TO.P,J3,2,Pin_2*%
%TO.N,Net-(A1-+5V)*%
X139080000Y-93240000D03*
D11*
%TO.P,J3,1,Pin_1*%
%TO.N,Net-(A1-A1)*%
X139080000Y-95240000D03*
%TD*%
D10*
%TO.P,J5,2,Pin_2*%
%TO.N,Net-(A1-+5V)*%
X139040000Y-86150000D03*
D11*
%TO.P,J5,1,Pin_1*%
%TO.N,Net-(A1-A2)*%
X139040000Y-88150000D03*
%TD*%
D17*
%TO.P,R8,2*%
%TO.N,GND*%
X152850000Y-81070000D03*
D16*
%TO.P,R8,1*%
%TO.N,Net-(A1-A3)*%
X145230000Y-81070000D03*
%TD*%
D23*
%TO.N,Net-(A1-A3)*%
X107220000Y-82150000D02*
X111300000Y-78070000D01*
X104040000Y-100310000D02*
X104040000Y-84200000D01*
X111300000Y-78070000D02*
X111590000Y-78070000D01*
X111590000Y-78070000D02*
X127460000Y-78070000D01*
X107530000Y-103800000D02*
X104040000Y-100310000D01*
X104040000Y-84200000D02*
X106090000Y-82150000D01*
X106090000Y-82150000D02*
X107220000Y-82150000D01*
%TO.N,Net-(A1-A2)*%
X104670000Y-84580000D02*
X106370000Y-82880000D01*
X107530000Y-101260000D02*
X104670000Y-98400000D01*
X104670000Y-98400000D02*
X104670000Y-84580000D01*
X106370000Y-82880000D02*
X106510000Y-82880000D01*
X106510000Y-82880000D02*
X107470000Y-82880000D01*
%TO.N,Net-(A1-A1)*%
X105280000Y-84610000D02*
X105500000Y-84390000D01*
X105280000Y-96470000D02*
X105280000Y-84610000D01*
X107530000Y-98720000D02*
X105280000Y-96470000D01*
X105500000Y-84390000D02*
X106200000Y-83690000D01*
X106200000Y-83690000D02*
X107930000Y-83690000D01*
%TO.N,Net-(A1-A0)*%
X105860000Y-85050000D02*
X106620000Y-84290000D01*
X106620000Y-84290000D02*
X108970000Y-84290000D01*
X106150000Y-96180000D02*
X105860000Y-95890000D01*
X107530000Y-96180000D02*
X106150000Y-96180000D01*
X105860000Y-95890000D02*
X105860000Y-85050000D01*
%TO.N,Net-(A1-A2)*%
X107470000Y-82880000D02*
X111190000Y-79160000D01*
X111190000Y-79160000D02*
X125700000Y-79160000D01*
%TO.N,Net-(A1-A1)*%
X107930000Y-83690000D02*
X111350000Y-80270000D01*
X111350000Y-80270000D02*
X125420000Y-80270000D01*
%TO.N,Net-(A1-A0)*%
X111760000Y-81500000D02*
X125040000Y-81500000D01*
X108970000Y-84290000D02*
X111760000Y-81500000D01*
%TO.N,Net-(A1-+5V)*%
X155280000Y-78970000D02*
X139040000Y-78970000D01*
X156640000Y-87980000D02*
X156640000Y-80330000D01*
X156640000Y-80330000D02*
X155280000Y-78970000D01*
X109500000Y-118470000D02*
X107530000Y-116500000D01*
X109500000Y-123500000D02*
X109500000Y-118470000D01*
X108880000Y-124120000D02*
X109500000Y-123500000D01*
X107530000Y-124120000D02*
X108880000Y-124120000D01*
%TO.N,Net-(A1-D0{slash}RX)*%
X128000000Y-125810000D02*
X130010000Y-125810000D01*
X125800000Y-123610000D02*
X128000000Y-125810000D01*
X125800000Y-121820000D02*
X125800000Y-123610000D01*
%TO.N,Net-(Q1-C)*%
X149020000Y-121580000D02*
X149020000Y-117000000D01*
X149030000Y-121590000D02*
X149020000Y-121580000D01*
%TO.N,Net-(A1-+5V)*%
X154730000Y-107640000D02*
X149230000Y-107640000D01*
X156640000Y-109550000D02*
X154730000Y-107640000D01*
%TO.N,Net-(Q1-C)*%
X142540000Y-128080000D02*
X149030000Y-121590000D01*
X141990000Y-128080000D02*
X142540000Y-128080000D01*
%TO.N,Net-(A1-+5V)*%
X154510000Y-100300000D02*
X156640000Y-102430000D01*
X156640000Y-102430000D02*
X156640000Y-95260000D01*
X139120000Y-100300000D02*
X154510000Y-100300000D01*
X156640000Y-109550000D02*
X156640000Y-102430000D01*
X154620000Y-93240000D02*
X156640000Y-95260000D01*
X139080000Y-93240000D02*
X154620000Y-93240000D01*
X156640000Y-95260000D02*
X156640000Y-87980000D01*
X139040000Y-86150000D02*
X154810000Y-86150000D01*
X154810000Y-86150000D02*
X156640000Y-87980000D01*
%TO.N,Net-(A1-A3)*%
X139150000Y-81080000D02*
X139040000Y-80970000D01*
X145250000Y-81080000D02*
X139150000Y-81080000D01*
%TO.N,Net-(A1-A2)*%
X139080000Y-88190000D02*
X139040000Y-88150000D01*
X144850000Y-88190000D02*
X139080000Y-88190000D01*
%TO.N,Net-(A1-A1)*%
X139120000Y-95200000D02*
X139080000Y-95240000D01*
X145310000Y-95200000D02*
X139120000Y-95200000D01*
%TO.N,Net-(A1-A3)*%
X127460000Y-78070000D02*
X130360000Y-80970000D01*
X130360000Y-80970000D02*
X139040000Y-80970000D01*
%TO.N,Net-(A1-A2)*%
X134820000Y-83930000D02*
X139040000Y-88150000D01*
X130470000Y-83930000D02*
X134820000Y-83930000D01*
X125700000Y-79160000D02*
X130470000Y-83930000D01*
%TO.N,Net-(A1-A1)*%
X137410000Y-95240000D02*
X139080000Y-95240000D01*
X130160000Y-84950000D02*
X134500000Y-84950000D01*
X135340000Y-85790000D02*
X135340000Y-93170000D01*
X134500000Y-84950000D02*
X135340000Y-85790000D01*
X125420000Y-80270000D02*
X125450000Y-80240000D01*
X125450000Y-80240000D02*
X130160000Y-84950000D01*
X135340000Y-93170000D02*
X137410000Y-95240000D01*
%TO.N,Net-(LS1-Pad1)*%
X145630000Y-129780000D02*
X148900000Y-126510000D01*
X136560000Y-129780000D02*
X145630000Y-129780000D01*
X136000000Y-129220000D02*
X136560000Y-129780000D01*
X136000000Y-127620000D02*
X136000000Y-129220000D01*
%TO.N,Net-(A1-A0)*%
X137050000Y-102300000D02*
X139120000Y-102300000D01*
X135940000Y-101190000D02*
X137050000Y-102300000D01*
X135940000Y-97130000D02*
X135940000Y-101190000D01*
X134500000Y-95690000D02*
X135940000Y-97130000D01*
X134500000Y-86310000D02*
X134500000Y-95690000D01*
X129440000Y-85900000D02*
X134090000Y-85900000D01*
X134090000Y-85900000D02*
X134500000Y-86310000D01*
X125040000Y-81500000D02*
X129440000Y-85900000D01*
%TO.N,Net-(J13-Pin_2)*%
X138470000Y-109580000D02*
X140400000Y-109580000D01*
X136480000Y-111570000D02*
X138470000Y-109580000D01*
%TO.N,Net-(A1-+5V)*%
X156640000Y-109550000D02*
X156640000Y-111740000D01*
X132650000Y-130430000D02*
X152880000Y-130430000D01*
X154540000Y-119410000D02*
X154540000Y-128770000D01*
X152880000Y-130430000D02*
X154540000Y-128770000D01*
%TO.N,Net-(J11-Pin_2)*%
X141990000Y-121370000D02*
X142930000Y-120430000D01*
X141990000Y-125540000D02*
X141990000Y-121370000D01*
%TO.N,Net-(Q1-B)*%
X138870000Y-126810000D02*
X141990000Y-126810000D01*
X137560000Y-125500000D02*
X138870000Y-126810000D01*
X137560000Y-117580000D02*
X137560000Y-125500000D01*
X136310000Y-116330000D02*
X137560000Y-117580000D01*
%TO.N,Net-(A1-A0)*%
X145340000Y-103140000D02*
X139960000Y-103140000D01*
X139960000Y-103140000D02*
X139120000Y-102300000D01*
%TO.N,Net-(A1-D13)*%
X130470000Y-94050000D02*
X131670000Y-94050000D01*
X133710000Y-87360000D02*
X133710000Y-92010000D01*
X131670000Y-94050000D02*
X133710000Y-92010000D01*
X117960000Y-86990000D02*
X133340000Y-86990000D01*
X116440000Y-88510000D02*
X117960000Y-86990000D01*
X133340000Y-86990000D02*
X133710000Y-87360000D01*
X116390000Y-88560000D02*
X116440000Y-88510000D01*
X107530000Y-88560000D02*
X116390000Y-88560000D01*
%TO.N,Net-(A1-D12)*%
X124260000Y-90050000D02*
X122770000Y-88560000D01*
X130470000Y-90050000D02*
X124260000Y-90050000D01*
%TO.N,Net-(A1-D11)*%
X130470000Y-92050000D02*
X123720000Y-92050000D01*
X123720000Y-92050000D02*
X122770000Y-91100000D01*
%TO.N,Net-(A1-+5V)*%
X132650000Y-130430000D02*
X129980000Y-127760000D01*
X129980000Y-127760000D02*
X127950000Y-127760000D01*
X156640000Y-117310000D02*
X154540000Y-119410000D01*
X156640000Y-114310000D02*
X156640000Y-117310000D01*
X156640000Y-111740000D02*
X156640000Y-114310000D01*
%TO.N,Net-(A1-D10)*%
X125640000Y-96510000D02*
X122770000Y-93640000D01*
X133580000Y-96510000D02*
X125640000Y-96510000D01*
X134320000Y-97250000D02*
X133580000Y-96510000D01*
X134370000Y-118030000D02*
X134320000Y-118030000D01*
X134320000Y-118030000D02*
X134320000Y-97250000D01*
X136260000Y-119920000D02*
X134370000Y-118030000D01*
%TO.N,Net-(A1-+5V)*%
X111170000Y-127760000D02*
X107530000Y-124120000D01*
X127950000Y-127760000D02*
X111170000Y-127760000D01*
%TO.N,Net-(A1-D0{slash}RX)*%
X125560000Y-121580000D02*
X125800000Y-121820000D01*
X122770000Y-121580000D02*
X125560000Y-121580000D01*
%TO.N,Net-(J13-Pin_2)*%
X136480000Y-113480000D02*
X136480000Y-111570000D01*
%TO.N,Net-(A1-D9)*%
X127300000Y-99440000D02*
X130500000Y-99440000D01*
X124040000Y-96180000D02*
X127300000Y-99440000D01*
X122770000Y-96180000D02*
X124040000Y-96180000D01*
%TO.N,Net-(A1-D8)*%
X126950000Y-101440000D02*
X130500000Y-101440000D01*
X124230000Y-98720000D02*
X126950000Y-101440000D01*
X122770000Y-98720000D02*
X124230000Y-98720000D01*
%TO.N,Net-(A1-D7)*%
X126260000Y-103490000D02*
X126310000Y-103440000D01*
X126310000Y-103440000D02*
X130500000Y-103440000D01*
X124030000Y-101260000D02*
X126260000Y-103490000D01*
X122770000Y-101260000D02*
X124030000Y-101260000D01*
%TO.N,Net-(A1-D6)*%
X124390000Y-103800000D02*
X126050000Y-105460000D01*
X122770000Y-103800000D02*
X124390000Y-103800000D01*
X126050000Y-105460000D02*
X126070000Y-105440000D01*
X126070000Y-105440000D02*
X130500000Y-105440000D01*
%TO.N,Net-(A1-D5)*%
X124190000Y-106340000D02*
X125290000Y-107440000D01*
X122770000Y-106340000D02*
X124190000Y-106340000D01*
X125290000Y-107440000D02*
X130500000Y-107440000D01*
%TO.N,Net-(A1-D4)*%
X124980000Y-109440000D02*
X130500000Y-109440000D01*
X124420000Y-108880000D02*
X124980000Y-109440000D01*
X122770000Y-108880000D02*
X124420000Y-108880000D01*
%TO.N,Net-(A1-D3)*%
X125650000Y-113490000D02*
X125660000Y-113480000D01*
X124840000Y-113490000D02*
X125650000Y-113490000D01*
X125660000Y-113480000D02*
X128860000Y-113480000D01*
X122770000Y-111420000D02*
X124840000Y-113490000D01*
%TO.N,Net-(A1-D2)*%
X125870000Y-116330000D02*
X128690000Y-116330000D01*
X125850000Y-116310000D02*
X125870000Y-116330000D01*
X125120000Y-116310000D02*
X125850000Y-116310000D01*
X122770000Y-113960000D02*
X125120000Y-116310000D01*
X122940000Y-113960000D02*
X122770000Y-113960000D01*
X122940000Y-113960000D02*
X123030000Y-114050000D01*
X122770000Y-113960000D02*
X122860000Y-113960000D01*
X122860000Y-113960000D02*
X122870000Y-113950000D01*
%TD*%
M02*
