%TF.GenerationSoftware,KiCad,Pcbnew,7.0.10*%
%TF.CreationDate,2024-06-28T17:48:14-04:00*%
%TF.ProjectId,LaserTank,4c617365-7254-4616-9e6b-2e6b69636164,rev?*%
%TF.SameCoordinates,Original*%
%TF.FileFunction,Soldermask,Bot*%
%TF.FilePolarity,Negative*%
%FSLAX46Y46*%
G04 Gerber Fmt 4.6, Leading zero omitted, Abs format (unit mm)*
G04 Created by KiCad (PCBNEW 7.0.10) date 2024-06-28 17:48:14*
%MOMM*%
%LPD*%
G01*
G04 APERTURE LIST*
G04 Aperture macros list*
%AMRoundRect*
0 Rectangle with rounded corners*
0 $1 Rounding radius*
0 $2 $3 $4 $5 $6 $7 $8 $9 X,Y pos of 4 corners*
0 Add a 4 corners polygon primitive as box body*
4,1,4,$2,$3,$4,$5,$6,$7,$8,$9,$2,$3,0*
0 Add four circle primitives for the rounded corners*
1,1,$1+$1,$2,$3*
1,1,$1+$1,$4,$5*
1,1,$1+$1,$6,$7*
1,1,$1+$1,$8,$9*
0 Add four rect primitives between the rounded corners*
20,1,$1+$1,$2,$3,$4,$5,0*
20,1,$1+$1,$4,$5,$6,$7,0*
20,1,$1+$1,$6,$7,$8,$9,0*
20,1,$1+$1,$8,$9,$2,$3,0*%
G04 Aperture macros list end*
%ADD10O,1.750000X1.200000*%
%ADD11RoundRect,0.250000X0.625000X-0.350000X0.625000X0.350000X-0.625000X0.350000X-0.625000X-0.350000X0*%
%ADD12C,3.000000*%
%ADD13R,3.000000X3.000000*%
%ADD14O,1.500000X1.050000*%
%ADD15R,1.500000X1.050000*%
%ADD16C,1.400000*%
%ADD17O,1.400000X1.400000*%
%ADD18RoundRect,0.250000X-0.625000X0.350000X-0.625000X-0.350000X0.625000X-0.350000X0.625000X0.350000X0*%
%ADD19R,2.000000X2.000000*%
%ADD20C,2.000000*%
%ADD21R,1.600000X1.600000*%
%ADD22O,1.600000X1.600000*%
G04 APERTURE END LIST*
D10*
%TO.C,J1*%
X139120000Y-100300000D03*
D11*
X139120000Y-102300000D03*
%TD*%
D12*
%TO.C,J11*%
X142930000Y-120430000D03*
D13*
X142930000Y-115350000D03*
%TD*%
D11*
%TO.C,J17*%
X149230000Y-109640000D03*
D10*
X149230000Y-107640000D03*
%TD*%
D14*
%TO.C,Q1*%
X141990000Y-128080000D03*
X141990000Y-126810000D03*
D15*
X141990000Y-125540000D03*
%TD*%
D16*
%TO.C,R5*%
X145340000Y-103140000D03*
D17*
X152960000Y-103140000D03*
%TD*%
D16*
%TO.C,R1*%
X125800000Y-121820000D03*
D17*
X133420000Y-121820000D03*
%TD*%
D10*
%TO.C,J9*%
X130010000Y-127810000D03*
D18*
X130010000Y-125810000D03*
%TD*%
D10*
%TO.C,J13*%
X140400000Y-109580000D03*
D18*
X140400000Y-107580000D03*
%TD*%
%TO.C,J15*%
X130500000Y-99440000D03*
D10*
X130500000Y-101440000D03*
X130500000Y-103440000D03*
X130500000Y-105440000D03*
X130500000Y-107440000D03*
X130500000Y-109440000D03*
%TD*%
%TO.C,J16*%
X130470000Y-94050000D03*
X130470000Y-92050000D03*
D18*
X130470000Y-90050000D03*
%TD*%
D17*
%TO.C,R4*%
X136480000Y-113480000D03*
D16*
X128860000Y-113480000D03*
%TD*%
D17*
%TO.C,R9*%
X149020000Y-117000000D03*
D16*
X156640000Y-117000000D03*
%TD*%
D19*
%TO.C,LS1*%
X148900000Y-126510000D03*
D20*
X156500000Y-126510000D03*
%TD*%
D17*
%TO.C,R2*%
X136000000Y-127620000D03*
D16*
X136000000Y-120000000D03*
%TD*%
D17*
%TO.C,R6*%
X152930000Y-95200000D03*
D16*
X145310000Y-95200000D03*
%TD*%
D11*
%TO.C,J7*%
X139040000Y-80970000D03*
D10*
X139040000Y-78970000D03*
%TD*%
D21*
%TO.C,A1*%
X122770000Y-124120000D03*
D22*
X122770000Y-121580000D03*
X122770000Y-119040000D03*
X122770000Y-116500000D03*
X122770000Y-113960000D03*
X122770000Y-111420000D03*
X122770000Y-108880000D03*
X122770000Y-106340000D03*
X122770000Y-103800000D03*
X122770000Y-101260000D03*
X122770000Y-98720000D03*
X122770000Y-96180000D03*
X122770000Y-93640000D03*
X122770000Y-91100000D03*
X122770000Y-88560000D03*
X107530000Y-88560000D03*
X107530000Y-91100000D03*
X107530000Y-93640000D03*
X107530000Y-96180000D03*
X107530000Y-98720000D03*
X107530000Y-101260000D03*
X107530000Y-103800000D03*
X107530000Y-106340000D03*
X107530000Y-108880000D03*
X107530000Y-111420000D03*
X107530000Y-113960000D03*
X107530000Y-116500000D03*
X107530000Y-119040000D03*
X107530000Y-121580000D03*
X107530000Y-124120000D03*
%TD*%
D17*
%TO.C,R7*%
X152910000Y-88200000D03*
D16*
X145290000Y-88200000D03*
%TD*%
D17*
%TO.C,R3*%
X128690000Y-116330000D03*
D16*
X136310000Y-116330000D03*
%TD*%
D10*
%TO.C,J3*%
X139080000Y-93240000D03*
D11*
X139080000Y-95240000D03*
%TD*%
D10*
%TO.C,J5*%
X139040000Y-86150000D03*
D11*
X139040000Y-88150000D03*
%TD*%
D17*
%TO.C,R8*%
X152850000Y-81070000D03*
D16*
X145230000Y-81070000D03*
%TD*%
M02*
